<svg viewBox="0 0 181.16 83.08" xmlns="http://www.w3.org/2000/svg">
<g>
	<path fill="#0054A6" d="M54.06,4.77c0.75,0.82,1.33,1.97,1.75,3.45c0.41,1.48,0.62,3.16,0.62,5.05c0,2.84-0.44,5.11-1.31,6.81
		c-0.88,1.71-2.02,2.56-3.44,2.56H49.7c-0.09,0-0.13,0.08-0.13,0.23v12.17c0,0.15-0.03,0.28-0.09,0.39
		c-0.06,0.11-0.14,0.16-0.22,0.16h-3.07c-0.09,0-0.16-0.05-0.22-0.16c-0.06-0.11-0.09-0.24-0.09-0.39V4.09
		c0-0.15,0.03-0.28,0.09-0.39c0.06-0.11,0.14-0.16,0.22-0.16h5.3C52.45,3.54,53.31,3.95,54.06,4.77z M52.21,16.5
		c0.34-0.75,0.51-1.78,0.51-3.09c0-1.34-0.17-2.39-0.51-3.16c-0.34-0.76-0.79-1.14-1.35-1.14H49.7c-0.09,0-0.13,0.08-0.13,0.23v8.05
		c0,0.15,0.04,0.23,0.13,0.23h1.16C51.42,17.62,51.87,17.25,52.21,16.5z"/>
	<path fill="#0054A6" d="M67.63,8.96c-0.06,0.11-0.14,0.16-0.22,0.16h-5.46c-0.09,0-0.13,0.08-0.13,0.23v7.23
		c0,0.15,0.04,0.23,0.13,0.23h3.13c0.09,0,0.16,0.05,0.22,0.16c0.06,0.11,0.09,0.24,0.09,0.39v4.44c0,0.15-0.03,0.28-0.09,0.39
		c-0.06,0.11-0.14,0.16-0.22,0.16h-3.13c-0.09,0-0.13,0.08-0.13,0.23v12.49c0,0.15-0.03,0.28-0.09,0.39
		c-0.06,0.11-0.14,0.16-0.22,0.16h-3.07c-0.09,0-0.16-0.05-0.22-0.16c-0.06-0.11-0.09-0.24-0.09-0.39V4.13
		c0-0.15,0.03-0.28,0.09-0.39c0.06-0.11,0.14-0.16,0.22-0.16h8.98c0.09,0,0.16,0.05,0.22,0.16c0.06,0.11,0.09,0.24,0.09,0.39v4.44
		C67.72,8.72,67.69,8.85,67.63,8.96z"/>
	<path fill="#0054A6" d="M69.25,35.44c-0.06-0.11-0.09-0.24-0.09-0.39V4.13c0-0.15,0.03-0.28,0.09-0.39
		c0.06-0.11,0.14-0.16,0.22-0.16h3.07c0.09,0,0.16,0.05,0.22,0.16c0.06,0.11,0.09,0.24,0.09,0.39v25.7c0,0.15,0.04,0.23,0.13,0.23
		h5.51c0.09,0,0.16,0.05,0.22,0.16c0.06,0.11,0.09,0.24,0.09,0.39v4.44c0,0.15-0.03,0.28-0.09,0.39c-0.06,0.11-0.14,0.16-0.22,0.16
		h-9.03C69.39,35.6,69.31,35.54,69.25,35.44z"/>
	<path fill="#0054A6" d="M89.89,8.96c-0.06,0.11-0.14,0.16-0.22,0.16h-5.49c-0.09,0-0.13,0.08-0.13,0.23v7.23
		c0,0.15,0.04,0.23,0.13,0.23h3.15c0.09,0,0.16,0.05,0.22,0.16c0.06,0.11,0.09,0.24,0.09,0.39v4.44c0,0.15-0.03,0.28-0.09,0.39
		c-0.06,0.11-0.14,0.16-0.22,0.16h-3.15c-0.09,0-0.13,0.08-0.13,0.23v7.27c0,0.15,0.04,0.23,0.13,0.23h5.49
		c0.09,0,0.16,0.05,0.22,0.16c0.06,0.11,0.09,0.24,0.09,0.39v4.44c0,0.15-0.03,0.28-0.09,0.39c-0.06,0.11-0.14,0.16-0.22,0.16h-9.01
		c-0.09,0-0.16-0.05-0.22-0.16c-0.06-0.11-0.09-0.24-0.09-0.39V4.13c0-0.15,0.03-0.28,0.09-0.39c0.06-0.11,0.14-0.16,0.22-0.16h9.01
		c0.09,0,0.16,0.05,0.22,0.16c0.06,0.11,0.09,0.24,0.09,0.39v4.44C89.99,8.72,89.96,8.85,89.89,8.96z"/>
	<path fill="#0054A6" d="M93.02,33.61c-0.95-1.57-1.43-3.67-1.43-6.29V11.86c0-2.62,0.48-4.72,1.43-6.29
		c0.95-1.57,2.22-2.36,3.79-2.36c1.58,0,2.84,0.79,3.81,2.38c0.96,1.59,1.44,3.69,1.44,6.31v1.74c0,0.15-0.03,0.28-0.09,0.39
		c-0.06,0.11-0.14,0.16-0.22,0.16h-3.07c-0.09,0-0.16-0.05-0.22-0.16c-0.06-0.11-0.09-0.24-0.09-0.39v-1.83
		c0-0.91-0.14-1.65-0.42-2.22c-0.28-0.56-0.66-0.85-1.13-0.85c-0.46,0-0.82,0.28-1.1,0.85c-0.28,0.56-0.42,1.3-0.42,2.22v15.55
		c0,0.91,0.14,1.65,0.42,2.22c0.28,0.56,0.65,0.85,1.1,0.85c0.47,0,0.85-0.28,1.13-0.85c0.28-0.56,0.42-1.3,0.42-2.22v-3.66
		c0-0.15-0.04-0.23-0.13-0.23h-1.16c-0.09,0-0.16-0.05-0.22-0.16c-0.06-0.11-0.09-0.24-0.09-0.39v-4.07c0-0.15,0.03-0.28,0.09-0.39
		c0.06-0.11,0.14-0.16,0.22-0.16h4.67c0.09,0,0.16,0.05,0.22,0.16c0.06,0.11,0.09,0.24,0.09,0.39v8.46c0,2.62-0.48,4.72-1.44,6.29
		c-0.96,1.57-2.23,2.36-3.81,2.36C95.24,35.96,93.97,35.18,93.02,33.61z"/>
	<path fill="#0054A6" d="M113.66,8.96c-0.06,0.11-0.14,0.16-0.22,0.16h-5.49c-0.09,0-0.13,0.08-0.13,0.23v7.23
		c0,0.15,0.04,0.23,0.13,0.23h3.15c0.09,0,0.16,0.05,0.22,0.16c0.06,0.11,0.09,0.24,0.09,0.39v4.44c0,0.15-0.03,0.28-0.09,0.39
		c-0.06,0.11-0.14,0.16-0.22,0.16h-3.15c-0.09,0-0.13,0.08-0.13,0.23v7.27c0,0.15,0.04,0.23,0.13,0.23h5.49
		c0.09,0,0.16,0.05,0.22,0.16c0.06,0.11,0.09,0.24,0.09,0.39v4.44c0,0.15-0.03,0.28-0.09,0.39c-0.06,0.11-0.14,0.16-0.22,0.16h-9.01
		c-0.09,0-0.16-0.05-0.22-0.16c-0.06-0.11-0.09-0.24-0.09-0.39V4.13c0-0.15,0.03-0.28,0.09-0.39c0.06-0.11,0.14-0.16,0.22-0.16h9.01
		c0.09,0,0.16,0.05,0.22,0.16c0.06,0.11,0.09,0.24,0.09,0.39v4.44C113.75,8.72,113.72,8.85,113.66,8.96z"/>
	<path fill="#0054A6" d="M115.71,35.44c-0.06-0.11-0.09-0.24-0.09-0.39V4.13c0-0.15,0.03-0.28,0.09-0.39
		c0.06-0.11,0.14-0.16,0.22-0.16h4.75c1.59,0,2.87,0.81,3.83,2.42c0.96,1.62,1.44,3.77,1.44,6.45v14.27c0,2.68-0.48,4.83-1.44,6.45
		c-0.96,1.62-2.24,2.42-3.83,2.42h-4.75C115.84,35.6,115.77,35.54,115.71,35.44z M119.45,30.06l1.18-0.05
		c0.47-0.03,0.86-0.38,1.16-1.05c0.3-0.67,0.46-1.55,0.47-2.65V12.87c0-1.16-0.15-2.07-0.45-2.74c-0.3-0.67-0.7-1.01-1.21-1.01
		h-1.16c-0.09,0-0.13,0.08-0.13,0.23v20.49C119.32,29.99,119.36,30.06,119.45,30.06z"/>
	<path fill="#0054A6" d="M128.21,35.44c-0.06-0.11-0.09-0.24-0.09-0.39V4.13c0-0.15,0.03-0.28,0.09-0.39
		c0.06-0.11,0.14-0.16,0.22-0.16h3.07c0.09,0,0.16,0.05,0.22,0.16c0.06,0.11,0.09,0.24,0.09,0.39v30.92c0,0.15-0.03,0.28-0.09,0.39
		c-0.06,0.11-0.14,0.16-0.22,0.16h-3.07C128.34,35.6,128.27,35.54,128.21,35.44z"/>
	<path fill="#0054A6" d="M143.7,8.96c-0.06,0.11-0.14,0.16-0.22,0.16h-5.49c-0.09,0-0.13,0.08-0.13,0.23v7.23
		c0,0.15,0.04,0.23,0.13,0.23h3.15c0.09,0,0.16,0.05,0.22,0.16c0.06,0.11,0.09,0.24,0.09,0.39v4.44c0,0.15-0.03,0.28-0.09,0.39
		c-0.06,0.11-0.14,0.16-0.22,0.16h-3.15c-0.09,0-0.13,0.08-0.13,0.23v7.27c0,0.15,0.04,0.23,0.13,0.23h5.49
		c0.09,0,0.16,0.05,0.22,0.16c0.06,0.11,0.09,0.24,0.09,0.39v4.44c0,0.15-0.03,0.28-0.09,0.39c-0.06,0.11-0.14,0.16-0.22,0.16h-9.01
		c-0.09,0-0.16-0.05-0.22-0.16c-0.06-0.11-0.09-0.24-0.09-0.39V4.13c0-0.15,0.03-0.28,0.09-0.39c0.06-0.11,0.14-0.16,0.22-0.16h9.01
		c0.09,0,0.16,0.05,0.22,0.16c0.06,0.11,0.09,0.24,0.09,0.39v4.44C143.79,8.72,143.76,8.85,143.7,8.96z"/>
	<path fill="#0054A6" d="M153.26,3.74c0.06-0.11,0.14-0.16,0.22-0.16h3.05c0.09,0,0.16,0.05,0.22,0.16
		c0.06,0.11,0.09,0.24,0.09,0.39v30.92c0,0.15-0.03,0.28-0.09,0.39c-0.06,0.11-0.14,0.16-0.22,0.16h-3.47
		c-0.18,0-0.29-0.15-0.34-0.46l-3.26-17.7c-0.02-0.09-0.05-0.13-0.09-0.11c-0.04,0.02-0.07,0.07-0.07,0.16l0.03,17.56
		c0,0.15-0.03,0.28-0.09,0.39c-0.06,0.11-0.14,0.16-0.22,0.16h-3.05c-0.09,0-0.16-0.05-0.22-0.16c-0.06-0.11-0.09-0.24-0.09-0.39
		V4.13c0-0.15,0.03-0.28,0.09-0.39c0.06-0.11,0.14-0.16,0.22-0.16h3.44c0.17,0,0.29,0.15,0.34,0.46l3.28,17.7
		c0.02,0.09,0.05,0.13,0.09,0.11c0.04-0.01,0.07-0.07,0.07-0.16l-0.03-17.56C153.17,3.98,153.2,3.85,153.26,3.74z"/>
	<path fill="#0054A6" d="M161.2,34.91c-0.77-0.7-1.37-1.68-1.79-2.95c-0.42-1.26-0.63-2.72-0.63-4.37v-1.33
		c0-0.15,0.03-0.28,0.09-0.39c0.06-0.11,0.14-0.16,0.22-0.16h3.02c0.09,0,0.16,0.05,0.22,0.16c0.06,0.11,0.09,0.24,0.09,0.39v1.01
		c0,0.95,0.14,1.71,0.42,2.29c0.28,0.58,0.63,0.87,1.05,0.87s0.77-0.27,1.05-0.82c0.28-0.55,0.42-1.26,0.42-2.15
		c0-0.91-0.18-1.7-0.53-2.36c-0.35-0.66-1.03-1.62-2.05-2.9c-0.88-1.1-1.58-2.07-2.13-2.93c-0.54-0.85-1.01-1.91-1.39-3.16
		c-0.39-1.25-0.58-2.7-0.58-4.34c0-2.59,0.46-4.66,1.39-6.22c0.93-1.55,2.15-2.33,3.68-2.33c1.54,0,2.78,0.81,3.72,2.42
		c0.94,1.62,1.41,3.74,1.41,6.36v1.1c0,0.15-0.03,0.28-0.09,0.39c-0.06,0.11-0.14,0.16-0.22,0.16h-3.02c-0.09,0-0.16-0.05-0.22-0.16
		c-0.06-0.11-0.09-0.24-0.09-0.39v-1.23c0-0.94-0.14-1.7-0.41-2.26c-0.27-0.56-0.63-0.85-1.06-0.85c-0.42,0-0.76,0.27-1.02,0.8
		c-0.26,0.53-0.39,1.27-0.39,2.22c0,0.91,0.17,1.72,0.5,2.42c0.33,0.7,0.99,1.68,1.97,2.93c1.09,1.4,1.9,2.54,2.46,3.41
		c0.55,0.87,0.98,1.83,1.29,2.88c0.31,1.05,0.46,2.31,0.46,3.77c0,2.68-0.47,4.82-1.42,6.4c-0.95,1.59-2.19,2.38-3.73,2.38
		C162.87,35.96,161.97,35.61,161.2,34.91z"/>
	<path fill="#0054A6" d="M181.07,3.74c0.06,0.11,0.09,0.24,0.09,0.39v4.44c0,0.15-0.03,0.28-0.09,0.39
		c-0.06,0.11-0.14,0.16-0.22,0.16h-3.28c-0.09,0-0.13,0.08-0.13,0.23v25.7c0,0.15-0.03,0.28-0.09,0.39
		c-0.06,0.11-0.14,0.16-0.22,0.16h-3.07c-0.09,0-0.16-0.05-0.22-0.16c-0.06-0.11-0.09-0.24-0.09-0.39V9.35
		c0-0.15-0.04-0.23-0.13-0.23h-3.15c-0.09,0-0.16-0.05-0.22-0.16c-0.06-0.11-0.09-0.24-0.09-0.39V4.13c0-0.15,0.03-0.28,0.09-0.39
		c0.06-0.11,0.14-0.16,0.22-0.16h10.4C180.93,3.58,181.01,3.64,181.07,3.74z"/>
	<path fill="#0054A6" d="M43.93,18.67c-0.49-0.49-0.97-0.71-1.52-0.72c-0.33,0-0.69,0.08-1.09,0.24c-1.45,0.59-2.45,1.62-3.41,2.63
		c-0.54,0.56-1.09,1.13-1.71,1.62c-0.03-0.05-0.06-0.09-0.09-0.14c-0.18-0.29-0.41-0.65-0.59-1.01c-0.11-0.23-0.2-0.48-0.29-0.74
		c-0.1-0.3-0.21-0.61-0.36-0.9c-0.62-1.14-1.43-1.79-2.23-1.79c-0.67,0-1.28,0.45-1.72,1.26l-0.34,0.63
		c-1.59,2.98-3.23,6.06-5.07,8.97c-0.11,0.17-0.2,0.35-0.29,0.53c-0.29,0.57-0.5,0.92-0.86,0.92c-0.1,0-0.22-0.03-0.34-0.08
		c-0.47-0.2-0.39-0.53-0.11-1.23c0.1-0.24,0.2-0.49,0.24-0.73c0.02-0.14,0.15-0.3,0.29-0.46c0.11-0.12,0.22-0.25,0.3-0.39
		c1.64-2.93,3.1-5.84,2.96-9.34c-0.04-1.09-0.25-2.27-1.44-2.69c-0.34-0.12-0.68-0.18-1.02-0.18c-0.99,0-1.86,0.48-2.39,1.32
		l-0.14,0.22c-0.57,0.9-1.16,1.84-1.38,2.98c-0.64,3.38-1.12,6.23-1.32,9.17c-0.06,0.8-0.32,1.11-0.96,1.15c-0.03,0-0.06,0-0.09,0
		c-0.54,0-0.8-0.27-1-1.01c-0.81-3.04-1.04-6.19-1.15-8.87c-0.24-5.71,0.97-11.27,2.33-16.95c0.21-0.87,0.6-2.49-0.98-2.96
		C17.9,0.04,17.67,0,17.46,0C16-0.01,15.69,1.72,15.59,2.29c-0.15,0.84-0.32,1.68-0.48,2.51c-0.55,2.77-1.12,5.63-1.06,8.55l0,0.09
		c0.02,0.79,0.04,1.78-0.47,2.3c-0.27,0.27-0.66,0.4-1.2,0.4c-0.16,0-0.34-0.01-0.53-0.04c-0.04,0-0.07-0.01-0.11-0.01
		c-0.4,0-0.72,0.29-1.02,0.58c-0.09,0.08-0.17,0.16-0.26,0.24c-2.58,2.15-3.71,5.13-4.81,8l-0.31,0.81
		c-1.03,2.67-2.1,5.44-1.74,8.48c0.16,1.37,0.79,2.13,1.75,2.13c0.42,0,0.9-0.15,1.42-0.44c1.37-0.78,2.19-1.94,3.13-3.69
		c1.04-1.92,1.72-3.49,2.27-4.75l0.03-0.08c0.41-0.95,1.05-2.41,1.86-4.25c0.15,0.94,0.26,1.89,0.36,2.8c0.21,1.84,0.43,3.74,1,5.54
		c0.49,1.55,1.4,2.37,2.62,2.38c0.27,0,0.56-0.04,0.85-0.12c0.53-0.14,0.99-0.27,1.37-0.26c0.45,0,0.92,0.14,1.32,1.15
		c0.14,0.35,0.48,0.56,0.94,0.56c0.41,0,0.87-0.16,1.16-0.42c0.29-0.25,0.59-0.49,0.89-0.73c0.9-0.72,1.83-1.46,2.53-2.54
		c0.95-1.46,1.89-2.95,2.8-4.4c0.47-0.74,0.94-1.49,1.41-2.23c0.04-0.07,0.09-0.14,0.13-0.22c0.28-0.46,0.59-0.97,1.04-0.97
		c0.03,0,0.05,0,0.08,0.01c0.4,0.05,0.47,0.38,0.55,0.9c0.03,0.2,0.06,0.4,0.12,0.58c0.46,1.38,0.24,2.71,0,4.12
		c-0.04,0.25-0.09,0.51-0.12,0.76c-0.04,0.28-0.15,0.59-0.27,0.92c-0.23,0.67-0.48,1.37-0.19,1.95c0.17,0.34,0.5,0.59,1.01,0.75
		c0.01,0,0.3,0.1,0.68,0.1c0.22,0,0.43-0.03,0.63-0.09c1-0.3,1.35-1.81,1.73-3.41c0.04-0.18,0.08-0.35,0.13-0.53
		c0.47-1.93,1.87-5.18,3.39-7.26c0.46-0.62,0.96-0.94,1.48-0.93c0.12,0,0.24,0.02,0.37,0.05c0.08,0.02,0.17,0.05,0.25,0.07
		c0.3,0.09,0.62,0.18,0.92,0.18c0.47,0,0.82-0.23,1.02-0.7C44.69,20.22,44.57,19.31,43.93,18.67z M11.54,23.08
		c-1.36,3-2.35,6.21-5.02,9.08c0.38-4.12,2.05-7.27,3.54-10.47c0.23-0.49,0.54-0.66,1.05-0.58c0.54,0.09,0.38,0.55,0.42,0.87
		C11.57,22.35,11.68,22.78,11.54,23.08z M23.25,24.78c-0.16-0.36-0.23-0.7-0.26-1.02c-0.01-0.17,0-0.31,0.01-0.43
		c0.06-0.71,0.23-1.03,0.36-1.63c0.2-0.96,0.01-1.32,0.36-1.62c0.02-0.02,0.34-0.3,0.57-0.19c0.54,0.27,0.25,2.31,0.22,2.52
		c-0.08,0.56-0.25,1.34-0.65,2.21l-0.31,0.85L23.25,24.78z"/>
	<path fill="#0054A6" d="M44.34,47.43c-0.48-0.75-0.93-0.95-1.95-0.79c-1.62,0.27-2.75,1.06-3.75,2.03
		c-1.86,1.81-3.62,3.69-4.78,5.91c-1.25-0.9-0.62-2.21-1.36-3.18c-0.67-0.87-1.04-2.05-2.49-2.1c-1.36-0.04-1.92,1.05-2.53,1.87
		c-0.98,1.3-1.77,2.7-3.58,4.28c-0.07-1.84-0.05-3.15-0.18-4.44c-0.15-1.53-1.36-2.97-2.73-3.35c-1.26-0.35-1.56,1.51-2.14,2.45
		c-1.77,2.86-2.69,6.04-5.04,9.19c-0.02-2.89-0.16-5.35-0.82-7.74c-0.49-1.77-1.08-3.88-3.4-4.2C8.27,47.16,8.48,47,8.62,46.35
		c0.95-4.5,2.31-8.92,5.72-12.63c1.33-1.45-0.78-1.86-0.6-2.89c0.09-0.54-0.68-0.54-1.16-0.48c-1.21,0.16-1.46,0.98-1.83,1.8
		c-2.12,4.69-3.67,9.51-4.72,14.42c-1.79,8.34-4.35,16.58-5.49,25.02c-0.43,3.17-0.94,6.34-0.01,9.5c0.4,1.35,1.47,2.16,2.94,1.95
		c1.29-0.19,1.35-1.49,1.36-2.44c0.01-3-0.03-5.99,0.1-9c0.18-4.12,0.45-8.23,1.28-12.28c0.59-2.85,0.61-5.95,3.19-8.5
		c0.79,0.83,0.94,1.68,1.14,2.57c0.69,2.97,0.62,5.97,0.68,8.97c0.02,0.99,0.14,2.03,1.65,2.3c1.56,0.28,2.07-0.76,2.58-1.59
		c1.59-2.6,3.08-5.24,4.61-7.88c0.85,1.22,0.96,2.52,0.88,3.82c-0.07,1.09,0.77,1.7,1.69,2.14c1.05,0.5,1.37-0.54,1.98-0.94
		c0.67-0.44,1.04-1.09,1.56-1.64c1.39-1.48,1.94-3.41,3.83-4.71c0.7,0.63,0.5,1.36,0.59,2.03c0.27,1.9-0.25,3.75-0.44,5.63
		c-0.09,0.93-0.08,1.83,1.48,2.24c1.7,0.44,1.62-0.57,1.96-1.27c1.67-3.45,3.82-6.71,6.18-9.86c0.99-1.32,1.75-2.88,3.82-3.51
		C44.3,48.89,44.92,48.35,44.34,47.43z"/>
	<path fill="#0054A6" d="M23.85,39.3c1.03,0.32,2.02,0.89,2.12,1.78c0.12,1.07-1.24,1.47-2.16,1.56c-1.05,0.1-2.13-0.54-2.13-1.53
		C21.69,40.14,22.71,39.63,23.85,39.3z"/>
	<path fill="#0054A6" d="M29.55,39.92c0.91-0.06,1.36,0.68,1.46,1.54c0.1,0.86-0.8,1.34-1.56,1.3c-0.91-0.04-1.97-0.34-1.97-1.44
		C27.48,40.38,28.07,39.93,29.55,39.92z"/>
	<g>
		<path fill="#0054A6" d="M45.99,68.9c-0.06-0.11-0.09-0.24-0.09-0.39V37.59c0-0.15,0.03-0.28,0.09-0.39
			c0.06-0.11,0.14-0.16,0.22-0.16h3.07c0.09,0,0.16,0.05,0.22,0.16c0.06,0.11,0.09,0.24,0.09,0.39v11.53c0,0.12,0.02,0.19,0.07,0.21
			c0.04,0.02,0.07-0.04,0.09-0.16l3.39-11.71c0.09-0.27,0.21-0.41,0.37-0.41h3.26c0.12,0,0.21,0.05,0.25,0.16
			c0.04,0.11,0.04,0.27-0.01,0.48l-3.89,13.17c-0.02,0.12-0.03,0.21-0.03,0.27l4.12,17.29c0.02,0.06,0.03,0.15,0.03,0.27
			c0,0.24-0.09,0.37-0.26,0.37h-3.28c-0.19,0-0.32-0.14-0.37-0.41L50.6,56.66c-0.02-0.09-0.04-0.13-0.08-0.11
			c-0.04,0.02-0.07,0.05-0.11,0.11l-0.76,2.38c-0.04,0.12-0.05,0.21-0.05,0.27v9.19c0,0.15-0.03,0.28-0.09,0.39
			c-0.06,0.11-0.14,0.16-0.22,0.16h-3.07C46.12,69.06,46.05,69.01,45.99,68.9z"/>
		<path fill="#0054A6" d="M65.67,68.6l-2.02-12.62c-0.04-0.12-0.08-0.18-0.13-0.18h-0.89c-0.09,0-0.13,0.08-0.13,0.23v12.49
			c0,0.15-0.03,0.28-0.09,0.39c-0.06,0.11-0.14,0.16-0.22,0.16H59.1c-0.09,0-0.16-0.05-0.22-0.16c-0.06-0.11-0.09-0.24-0.09-0.39
			V37.59c0-0.15,0.03-0.28,0.09-0.39c0.06-0.11,0.14-0.16,0.22-0.16h5.3c0.96,0,1.82,0.4,2.57,1.21c0.75,0.81,1.33,1.94,1.75,3.41
			c0.41,1.46,0.62,3.14,0.62,5.03c0,1.8-0.2,3.38-0.59,4.76c-0.39,1.37-0.94,2.44-1.64,3.2c-0.04,0.03-0.06,0.07-0.08,0.11
			c-0.02,0.05-0.02,0.1,0,0.16l2.42,13.49l0.03,0.18c0,0.3-0.1,0.46-0.29,0.46h-3.15C65.84,69.06,65.72,68.91,65.67,68.6z
			 M62.49,42.81v7.82c0,0.15,0.04,0.23,0.13,0.23h1.18c0.54,0,0.98-0.37,1.33-1.12c0.34-0.75,0.51-1.74,0.51-3
			c0-1.28-0.17-2.29-0.51-3.04c-0.34-0.75-0.78-1.12-1.33-1.12h-1.18C62.53,42.58,62.49,42.65,62.49,42.81z"/>
		<path fill="#0054A6" d="M80.7,42.42c-0.06,0.11-0.14,0.16-0.22,0.16h-5.49c-0.09,0-0.13,0.08-0.13,0.23v7.23
			c0,0.15,0.04,0.23,0.13,0.23h3.15c0.09,0,0.16,0.05,0.22,0.16c0.06,0.11,0.09,0.24,0.09,0.39v4.44c0,0.15-0.03,0.28-0.09,0.39
			c-0.06,0.11-0.14,0.16-0.22,0.16h-3.15c-0.09,0-0.13,0.08-0.13,0.23v7.27c0,0.15,0.04,0.23,0.13,0.23h5.49
			c0.09,0,0.16,0.05,0.22,0.16c0.06,0.11,0.09,0.24,0.09,0.39v4.44c0,0.15-0.03,0.28-0.09,0.39c-0.06,0.11-0.14,0.16-0.22,0.16
			h-9.01c-0.09,0-0.16-0.05-0.22-0.16c-0.06-0.11-0.09-0.24-0.09-0.39V37.59c0-0.15,0.03-0.28,0.09-0.39
			c0.06-0.11,0.14-0.16,0.22-0.16h9.01c0.09,0,0.16,0.05,0.22,0.16c0.06,0.11,0.09,0.24,0.09,0.39v4.44
			C80.79,42.18,80.76,42.31,80.7,42.42z"/>
		<path fill="#0054A6" d="M84.01,66.84c-0.95-1.72-1.43-4.02-1.43-6.88V37.59c0-0.15,0.03-0.28,0.09-0.39
			c0.06-0.11,0.14-0.16,0.22-0.16h3.07c0.09,0,0.16,0.05,0.22,0.16c0.06,0.11,0.09,0.24,0.09,0.39v23c0,0.98,0.14,1.77,0.42,2.38
			c0.28,0.61,0.65,0.91,1.1,0.91c0.46,0,0.82-0.3,1.09-0.91c0.27-0.61,0.41-1.4,0.41-2.38v-23c0-0.15,0.03-0.28,0.09-0.39
			c0.06-0.11,0.14-0.16,0.22-0.16h3.07c0.09,0,0.16,0.05,0.22,0.16c0.06,0.11,0.09,0.24,0.09,0.39v22.36c0,2.87-0.48,5.16-1.43,6.88
			c-0.95,1.72-2.21,2.58-3.77,2.58C86.23,69.42,84.97,68.56,84.01,66.84z"/>
		<path fill="#0054A6" d="M94.7,68.9c-0.06-0.11-0.09-0.24-0.09-0.39v-4.62c0-0.24,0.03-0.47,0.08-0.69l5.62-20.35
			c0.02-0.09,0.02-0.16,0-0.21c-0.02-0.05-0.05-0.07-0.11-0.07h-5.28c-0.09,0-0.16-0.05-0.22-0.16c-0.06-0.11-0.09-0.24-0.09-0.39
			v-4.44c0-0.15,0.03-0.28,0.09-0.39c0.06-0.11,0.14-0.16,0.22-0.16h9.03c0.09,0,0.16,0.05,0.22,0.16c0.06,0.11,0.09,0.24,0.09,0.39
			v4.62c0,0.21-0.03,0.44-0.08,0.69l-5.62,20.35c-0.02,0.09-0.02,0.16,0,0.21c0.02,0.05,0.05,0.07,0.11,0.07h5.28
			c0.09,0,0.16,0.05,0.22,0.16c0.06,0.11,0.09,0.24,0.09,0.39v4.44c0,0.15-0.03,0.28-0.09,0.39c-0.06,0.11-0.14,0.16-0.22,0.16
			h-9.03C94.83,69.06,94.76,69.01,94.7,68.9z"/>
		<path fill="#0054A6" d="M115.14,66.77c-0.98,1.52-2.25,2.29-3.81,2.29h-4.96c-0.09,0-0.16-0.05-0.22-0.16
			c-0.06-0.11-0.09-0.24-0.09-0.39V37.59c0-0.15,0.03-0.28,0.09-0.39c0.06-0.11,0.14-0.16,0.22-0.16h4.39c1.75,0,3.12,0.73,4.11,2.2
			c0.99,1.46,1.48,3.64,1.48,6.54c0,3.02-0.6,5.21-1.79,6.59c-0.07,0.09-0.08,0.18-0.03,0.27c1.38,1.71,2.07,4.24,2.07,7.59
			C116.61,63.07,116.12,65.25,115.14,66.77z M109.76,42.81v7.18c0,0.15,0.04,0.23,0.13,0.23h0.95c0.6,0,1.06-0.33,1.39-0.98
			c0.33-0.66,0.5-1.58,0.5-2.77c0-1.25-0.16-2.21-0.49-2.88c-0.32-0.67-0.79-1.01-1.41-1.01h-0.95
			C109.8,42.58,109.76,42.65,109.76,42.81z M112.41,62.38c0.33-0.73,0.5-1.77,0.5-3.11c0-1.34-0.17-2.41-0.5-3.2
			c-0.33-0.79-0.78-1.19-1.34-1.19h-1.18c-0.09,0-0.13,0.08-0.13,0.23v8.14c0,0.15,0.04,0.23,0.13,0.23h1.16
			C111.62,63.48,112.08,63.11,112.41,62.38z"/>
		<path fill="#0054A6" d="M127.87,42.42c-0.06,0.11-0.14,0.16-0.22,0.16h-5.49c-0.09,0-0.13,0.08-0.13,0.23v7.23
			c0,0.15,0.04,0.23,0.13,0.23h3.15c0.09,0,0.16,0.05,0.22,0.16c0.06,0.11,0.09,0.24,0.09,0.39v4.44c0,0.15-0.03,0.28-0.09,0.39
			c-0.06,0.11-0.14,0.16-0.22,0.16h-3.15c-0.09,0-0.13,0.08-0.13,0.23v7.27c0,0.15,0.04,0.23,0.13,0.23h5.49
			c0.09,0,0.16,0.05,0.22,0.16c0.06,0.11,0.09,0.24,0.09,0.39v4.44c0,0.15-0.03,0.28-0.09,0.39c-0.06,0.11-0.14,0.16-0.22,0.16
			h-9.01c-0.09,0-0.16-0.05-0.22-0.16c-0.06-0.11-0.09-0.24-0.09-0.39V37.59c0-0.15,0.03-0.28,0.09-0.39
			c0.06-0.11,0.14-0.16,0.22-0.16h9.01c0.09,0,0.16,0.05,0.22,0.16c0.06,0.11,0.09,0.24,0.09,0.39v4.44
			C127.96,42.18,127.93,42.31,127.87,42.42z"/>
		<path fill="#0054A6" d="M136.7,68.6l-2.02-12.62c-0.03-0.12-0.08-0.18-0.13-0.18h-0.89c-0.09,0-0.13,0.08-0.13,0.23v12.49
			c0,0.15-0.03,0.28-0.09,0.39c-0.06,0.11-0.14,0.16-0.22,0.16h-3.07c-0.09,0-0.16-0.05-0.22-0.16c-0.06-0.11-0.09-0.24-0.09-0.39
			V37.59c0-0.15,0.03-0.28,0.09-0.39c0.06-0.11,0.14-0.16,0.22-0.16h5.3c0.96,0,1.82,0.4,2.57,1.21c0.75,0.81,1.33,1.94,1.75,3.41
			c0.41,1.46,0.62,3.14,0.62,5.03c0,1.8-0.2,3.38-0.59,4.76c-0.39,1.37-0.94,2.44-1.64,3.2c-0.04,0.03-0.06,0.07-0.08,0.11
			c-0.02,0.05-0.02,0.1,0,0.16l2.42,13.49l0.03,0.18c0,0.3-0.1,0.46-0.29,0.46h-3.15C136.88,69.06,136.75,68.91,136.7,68.6z
			 M133.52,42.81v7.82c0,0.15,0.04,0.23,0.13,0.23h1.18c0.54,0,0.98-0.37,1.33-1.12c0.34-0.75,0.51-1.74,0.51-3
			c0-1.28-0.17-2.29-0.51-3.04c-0.34-0.75-0.78-1.12-1.33-1.12h-1.18C133.57,42.58,133.52,42.65,133.52,42.81z"/>
		<path fill="#0054A6" d="M143.36,67.07c-0.95-1.57-1.43-3.67-1.43-6.29V45.32c0-2.62,0.48-4.72,1.43-6.29
			c0.95-1.57,2.22-2.35,3.79-2.35c1.58,0,2.84,0.79,3.81,2.38c0.96,1.59,1.44,3.69,1.44,6.31v1.74c0,0.15-0.03,0.28-0.09,0.39
			c-0.06,0.11-0.14,0.16-0.22,0.16h-3.07c-0.09,0-0.16-0.05-0.22-0.16c-0.06-0.11-0.09-0.24-0.09-0.39v-1.83
			c0-0.91-0.14-1.65-0.42-2.22c-0.28-0.56-0.66-0.85-1.13-0.85c-0.46,0-0.82,0.28-1.1,0.85c-0.28,0.56-0.42,1.3-0.42,2.22v15.55
			c0,0.92,0.14,1.65,0.42,2.22c0.28,0.56,0.65,0.85,1.1,0.85c0.47,0,0.85-0.28,1.13-0.85c0.28-0.56,0.42-1.3,0.42-2.22v-3.66
			c0-0.15-0.04-0.23-0.13-0.23h-1.16c-0.09,0-0.16-0.05-0.22-0.16c-0.06-0.11-0.09-0.24-0.09-0.39v-4.07c0-0.15,0.03-0.28,0.09-0.39
			c0.06-0.11,0.14-0.16,0.22-0.16h4.67c0.09,0,0.16,0.05,0.22,0.16c0.06,0.11,0.09,0.24,0.09,0.39v8.46c0,2.62-0.48,4.72-1.44,6.29
			c-0.96,1.57-2.23,2.36-3.81,2.36C145.58,69.42,144.31,68.64,143.36,67.07z"/>
	</g>
</g>
</svg>
