<?xml version="1.0" encoding="utf-8"?>
<!-- Generator: Adobe Illustrator 24.2.3, SVG Export Plug-In . SVG Version: 6.00 Build 0)  -->
<svg version="1.1" id="Layer_1" xmlns="http://www.w3.org/2000/svg" xmlns:xlink="http://www.w3.org/1999/xlink" x="0px" y="0px"
	 viewBox="0 0 181.16 83.08" enable-background="new 0 0 181.16 83.08" xml:space="preserve">
<g>
	<path fill="#0054A6" d="M54.062,4.772c0.753,0.823,1.335,1.974,1.746,3.453c0.411,1.479,0.617,3.163,0.617,5.054
		c0,2.836-0.438,5.107-1.313,6.814c-0.876,1.708-2.022,2.561-3.44,2.561h-1.97c-0.088,0-0.131,0.076-0.131,0.229v12.165
		c0,0.153-0.031,0.282-0.092,0.389c-0.062,0.107-0.136,0.16-0.223,0.16h-3.072c-0.088,0-0.162-0.053-0.223-0.16
		c-0.062-0.107-0.092-0.236-0.092-0.389V4.086c0-0.152,0.03-0.282,0.092-0.389c0.061-0.106,0.136-0.16,0.223-0.16h5.305
		C52.451,3.537,53.309,3.949,54.062,4.772z M52.21,16.503c0.342-0.747,0.512-1.776,0.512-3.087c0-1.341-0.171-2.393-0.512-3.156
		c-0.341-0.762-0.792-1.143-1.352-1.143h-1.155c-0.088,0-0.131,0.076-0.131,0.229v8.049c0,0.153,0.044,0.229,0.131,0.229h1.155
		C51.418,17.623,51.869,17.25,52.21,16.503z"/>
	<path fill="#0054A6" d="M67.625,8.956c-0.062,0.107-0.136,0.16-0.223,0.16H61.94c-0.088,0-0.131,0.076-0.131,0.229v7.226
		c0,0.153,0.044,0.229,0.131,0.229h3.125c0.087,0,0.162,0.054,0.223,0.16c0.061,0.107,0.092,0.236,0.092,0.389v4.436
		c0,0.153-0.031,0.282-0.092,0.389c-0.062,0.107-0.136,0.16-0.223,0.16H61.94c-0.088,0-0.131,0.076-0.131,0.229v12.485
		c0,0.153-0.031,0.282-0.092,0.389c-0.062,0.107-0.136,0.16-0.223,0.16h-3.072c-0.088,0-0.162-0.053-0.223-0.16
		c-0.062-0.107-0.092-0.236-0.092-0.389V4.131c0-0.152,0.03-0.281,0.092-0.389c0.061-0.106,0.135-0.16,0.223-0.16h8.981
		c0.087,0,0.162,0.053,0.223,0.16c0.061,0.107,0.092,0.237,0.092,0.389v4.436C67.717,8.721,67.686,8.85,67.625,8.956z"/>
	<path fill="#0054A6" d="M69.253,35.436c-0.062-0.107-0.092-0.236-0.092-0.389V4.131c0-0.152,0.03-0.281,0.092-0.389
		c0.061-0.106,0.135-0.16,0.223-0.16h3.072c0.087,0,0.162,0.053,0.223,0.16c0.061,0.107,0.092,0.237,0.092,0.389v25.702
		c0,0.153,0.044,0.229,0.131,0.229h5.515c0.087,0,0.162,0.053,0.223,0.16c0.061,0.107,0.092,0.237,0.092,0.389v4.436
		c0,0.153-0.031,0.282-0.092,0.389c-0.062,0.107-0.136,0.16-0.223,0.16h-9.034C69.388,35.596,69.314,35.544,69.253,35.436z"/>
	<path fill="#0054A6" d="M89.894,8.956c-0.062,0.107-0.136,0.16-0.223,0.16h-5.489c-0.088,0-0.131,0.076-0.131,0.229v7.226
		c0,0.153,0.044,0.229,0.131,0.229h3.151c0.087,0,0.162,0.054,0.223,0.16c0.061,0.107,0.092,0.236,0.092,0.389v4.436
		c0,0.153-0.031,0.282-0.092,0.389c-0.061,0.107-0.136,0.16-0.223,0.16h-3.151c-0.088,0-0.131,0.076-0.131,0.229v7.272
		c0,0.153,0.044,0.229,0.131,0.229h5.489c0.087,0,0.161,0.053,0.223,0.16c0.061,0.107,0.092,0.237,0.092,0.389v4.436
		c0,0.153-0.031,0.282-0.092,0.389c-0.062,0.107-0.136,0.16-0.223,0.16h-9.007c-0.088,0-0.162-0.053-0.223-0.16
		c-0.062-0.107-0.092-0.236-0.092-0.389V4.131c0-0.152,0.03-0.281,0.092-0.389c0.061-0.106,0.135-0.16,0.223-0.16h9.007
		c0.087,0,0.161,0.053,0.223,0.16c0.061,0.107,0.092,0.237,0.092,0.389v4.436C89.986,8.721,89.955,8.85,89.894,8.956z"/>
	<path fill="#0054A6" d="M93.019,33.607c-0.954-1.57-1.432-3.666-1.432-6.288V11.861c0-2.622,0.477-4.718,1.432-6.288
		c0.954-1.57,2.219-2.355,3.795-2.355c1.575,0,2.845,0.793,3.808,2.378c0.962,1.586,1.444,3.689,1.444,6.311v1.738
		c0,0.153-0.031,0.282-0.092,0.389c-0.062,0.107-0.136,0.16-0.224,0.16h-3.072c-0.088,0-0.162-0.053-0.223-0.16
		c-0.062-0.106-0.092-0.236-0.092-0.389v-1.829c0-0.915-0.141-1.654-0.42-2.218c-0.28-0.564-0.657-0.846-1.129-0.846
		c-0.455,0-0.823,0.282-1.103,0.846c-0.28,0.565-0.42,1.303-0.42,2.218v15.55c0,0.915,0.14,1.654,0.42,2.218
		c0.28,0.565,0.647,0.846,1.103,0.846c0.473,0,0.849-0.282,1.129-0.846c0.279-0.564,0.42-1.303,0.42-2.218v-3.659
		c0-0.152-0.044-0.229-0.132-0.229h-1.155c-0.088,0-0.162-0.053-0.223-0.16c-0.061-0.106-0.092-0.236-0.092-0.389v-4.07
		c0-0.152,0.031-0.282,0.092-0.389c0.061-0.107,0.136-0.16,0.223-0.16h4.674c0.088,0,0.162,0.053,0.224,0.16
		c0.061,0.107,0.092,0.236,0.092,0.389v8.461c0,2.622-0.482,4.718-1.444,6.288c-0.963,1.571-2.232,2.355-3.808,2.355
		C95.238,35.962,93.973,35.178,93.019,33.607z"/>
	<path fill="#0054A6" d="M113.659,8.956c-0.062,0.107-0.136,0.16-0.223,0.16h-5.489c-0.087,0-0.131,0.076-0.131,0.229v7.226
		c0,0.153,0.044,0.229,0.131,0.229h3.151c0.087,0,0.162,0.054,0.223,0.16c0.061,0.107,0.092,0.236,0.092,0.389v4.436
		c0,0.153-0.031,0.282-0.092,0.389c-0.062,0.107-0.136,0.16-0.223,0.16h-3.151c-0.087,0-0.131,0.076-0.131,0.229v7.272
		c0,0.153,0.044,0.229,0.131,0.229h5.489c0.087,0,0.161,0.053,0.223,0.16c0.061,0.107,0.092,0.237,0.092,0.389v4.436
		c0,0.153-0.031,0.282-0.092,0.389c-0.062,0.107-0.136,0.16-0.223,0.16h-9.008c-0.088,0-0.162-0.053-0.223-0.16
		c-0.061-0.107-0.092-0.236-0.092-0.389V4.131c0-0.152,0.03-0.281,0.092-0.389c0.061-0.106,0.136-0.16,0.223-0.16h9.008
		c0.087,0,0.161,0.053,0.223,0.16c0.061,0.107,0.092,0.237,0.092,0.389v4.436C113.751,8.721,113.721,8.85,113.659,8.956z"/>
	<path fill="#0054A6" d="M115.707,35.436c-0.062-0.107-0.092-0.236-0.092-0.389V4.131c0-0.152,0.03-0.281,0.092-0.389
		c0.061-0.106,0.136-0.16,0.223-0.16h4.753c1.593,0,2.871,0.808,3.834,2.424c0.962,1.616,1.444,3.766,1.444,6.448v14.269
		c0,2.683-0.482,4.833-1.444,6.448c-0.963,1.617-2.241,2.424-3.834,2.424h-4.753C115.843,35.596,115.768,35.544,115.707,35.436z
		 M119.449,30.063l1.182-0.046c0.473-0.03,0.858-0.381,1.155-1.052c0.298-0.67,0.455-1.555,0.473-2.653V12.867
		c0-1.158-0.149-2.073-0.446-2.744c-0.298-0.67-0.7-1.006-1.208-1.006h-1.156c-0.088,0-0.131,0.076-0.131,0.229v20.489
		C119.318,29.987,119.362,30.063,119.449,30.063z"/>
	<path fill="#0054A6" d="M128.207,35.436c-0.061-0.107-0.092-0.236-0.092-0.389V4.131c0-0.152,0.031-0.281,0.092-0.389
		c0.061-0.106,0.135-0.16,0.223-0.16h3.073c0.087,0,0.162,0.053,0.223,0.16c0.061,0.107,0.092,0.237,0.092,0.389v30.916
		c0,0.153-0.031,0.282-0.092,0.389c-0.061,0.107-0.136,0.16-0.223,0.16h-3.073C128.342,35.596,128.269,35.544,128.207,35.436z"/>
	<path fill="#0054A6" d="M143.701,8.956c-0.062,0.107-0.136,0.16-0.223,0.16h-5.488c-0.088,0-0.131,0.076-0.131,0.229v7.226
		c0,0.153,0.044,0.229,0.131,0.229h3.151c0.087,0,0.162,0.054,0.223,0.16c0.061,0.107,0.092,0.236,0.092,0.389v4.436
		c0,0.153-0.031,0.282-0.092,0.389c-0.062,0.107-0.136,0.16-0.223,0.16h-3.151c-0.088,0-0.131,0.076-0.131,0.229v7.272
		c0,0.153,0.044,0.229,0.131,0.229h5.488c0.087,0,0.162,0.053,0.223,0.16c0.061,0.107,0.092,0.237,0.092,0.389v4.436
		c0,0.153-0.031,0.282-0.092,0.389c-0.062,0.107-0.136,0.16-0.223,0.16h-9.007c-0.088,0-0.162-0.053-0.223-0.16
		c-0.062-0.107-0.092-0.236-0.092-0.389V4.131c0-0.152,0.03-0.281,0.092-0.389c0.061-0.106,0.135-0.16,0.223-0.16h9.007
		c0.087,0,0.162,0.053,0.223,0.16c0.061,0.107,0.092,0.237,0.092,0.389v4.436C143.793,8.721,143.762,8.85,143.701,8.956z"/>
	<path fill="#0054A6" d="M153.259,3.743c0.061-0.106,0.136-0.16,0.223-0.16h3.046c0.087,0,0.162,0.053,0.223,0.16
		c0.061,0.107,0.092,0.237,0.092,0.389v30.916c0,0.153-0.031,0.282-0.092,0.389c-0.062,0.107-0.136,0.16-0.223,0.16h-3.466
		c-0.175,0-0.289-0.152-0.342-0.458l-3.256-17.699c-0.018-0.091-0.048-0.129-0.092-0.114c-0.044,0.016-0.066,0.069-0.066,0.16
		l0.026,17.562c0,0.153-0.031,0.282-0.092,0.389c-0.061,0.107-0.136,0.16-0.223,0.16h-3.046c-0.088,0-0.162-0.053-0.223-0.16
		c-0.062-0.107-0.092-0.236-0.092-0.389V4.131c0-0.152,0.03-0.281,0.092-0.389c0.061-0.106,0.135-0.16,0.223-0.16h3.44
		c0.175,0,0.289,0.153,0.342,0.457l3.283,17.699c0.017,0.091,0.048,0.13,0.092,0.114c0.044-0.015,0.066-0.069,0.066-0.16
		l-0.026-17.562C153.168,3.979,153.198,3.85,153.259,3.743z"/>
	<path fill="#0054A6" d="M161.203,34.91c-0.771-0.701-1.366-1.684-1.786-2.95c-0.42-1.265-0.63-2.721-0.63-4.368v-1.326
		c0-0.152,0.03-0.282,0.092-0.389c0.061-0.106,0.135-0.16,0.223-0.16h3.02c0.087,0,0.162,0.054,0.223,0.16
		c0.061,0.107,0.092,0.236,0.092,0.389v1.006c0,0.945,0.14,1.708,0.42,2.287c0.28,0.58,0.63,0.869,1.051,0.869
		s0.77-0.274,1.05-0.823c0.28-0.549,0.42-1.265,0.42-2.15c0-0.915-0.175-1.699-0.525-2.355c-0.351-0.655-1.033-1.624-2.048-2.904
		c-0.876-1.098-1.585-2.073-2.127-2.927c-0.543-0.853-1.007-1.905-1.392-3.156c-0.385-1.25-0.578-2.698-0.578-4.345
		c0-2.591,0.463-4.665,1.392-6.22c0.928-1.555,2.153-2.332,3.676-2.332c1.54,0,2.779,0.808,3.716,2.424
		c0.936,1.616,1.405,3.735,1.405,6.357v1.098c0,0.153-0.031,0.282-0.092,0.389c-0.061,0.107-0.136,0.16-0.223,0.16h-3.02
		c-0.088,0-0.162-0.053-0.223-0.16c-0.062-0.106-0.092-0.236-0.092-0.389v-1.235c0-0.945-0.136-1.699-0.407-2.264
		c-0.271-0.564-0.626-0.846-1.064-0.846c-0.42,0-0.761,0.267-1.024,0.8c-0.263,0.534-0.394,1.273-0.394,2.218
		c0,0.915,0.166,1.723,0.499,2.424c0.332,0.702,0.989,1.677,1.97,2.927c1.085,1.403,1.904,2.538,2.455,3.407
		c0.552,0.869,0.98,1.829,1.287,2.881c0.306,1.052,0.46,2.31,0.46,3.773c0,2.683-0.473,4.818-1.418,6.403
		c-0.945,1.586-2.188,2.378-3.729,2.378C162.866,35.962,161.973,35.611,161.203,34.91z"/>
	<path fill="#0054A6" d="M181.069,3.743c0.061,0.107,0.092,0.237,0.092,0.389v4.436c0,0.153-0.031,0.282-0.092,0.389
		c-0.062,0.107-0.136,0.16-0.223,0.16h-3.283c-0.088,0-0.131,0.076-0.131,0.229v25.702c0,0.153-0.031,0.282-0.092,0.389
		c-0.062,0.107-0.136,0.16-0.223,0.16h-3.072c-0.088,0-0.162-0.053-0.223-0.16c-0.062-0.107-0.092-0.236-0.092-0.389V9.345
		c0-0.152-0.044-0.229-0.131-0.229h-3.151c-0.088,0-0.162-0.053-0.223-0.16c-0.061-0.106-0.092-0.236-0.092-0.389V4.131
		c0-0.152,0.03-0.281,0.092-0.389c0.061-0.106,0.136-0.16,0.223-0.16h10.399C180.933,3.583,181.007,3.636,181.069,3.743z"/>
	<path fill="#0054A6" d="M43.932,18.669c-0.485-0.487-0.969-0.715-1.523-0.717c-0.329-0.001-0.686,0.078-1.091,0.241
		c-1.45,0.585-2.448,1.623-3.414,2.627c-0.537,0.558-1.09,1.133-1.714,1.619c-0.029-0.046-0.059-0.093-0.091-0.142
		c-0.184-0.288-0.413-0.646-0.593-1.014c-0.114-0.233-0.198-0.479-0.286-0.739c-0.102-0.3-0.208-0.61-0.364-0.897
		c-0.616-1.137-1.43-1.792-2.233-1.794c-0.67-0.002-1.279,0.447-1.716,1.264L30.57,19.75c-1.59,2.979-3.234,6.061-5.074,8.974
		c-0.106,0.168-0.2,0.35-0.29,0.527c-0.293,0.571-0.496,0.917-0.857,0.916c-0.101,0-0.216-0.028-0.343-0.083
		c-0.469-0.203-0.393-0.531-0.106-1.229c0.099-0.242,0.202-0.492,0.237-0.726c0.022-0.145,0.155-0.298,0.295-0.46
		c0.106-0.123,0.216-0.249,0.296-0.393c1.641-2.926,3.102-5.843,2.958-9.337c-0.045-1.094-0.251-2.27-1.442-2.688
		c-0.337-0.118-0.682-0.179-1.025-0.18c-0.987-0.003-1.857,0.478-2.385,1.32l-0.136,0.216c-0.57,0.904-1.16,1.838-1.378,2.984
		c-0.645,3.38-1.116,6.232-1.323,9.167c-0.057,0.803-0.318,1.113-0.963,1.146c-0.032,0.002-0.062,0.002-0.092,0.002
		c-0.539-0.002-0.801-0.267-1-1.012c-0.813-3.044-1.038-6.192-1.15-8.87c-0.239-5.706,0.965-11.275,2.329-16.952
		c0.208-0.869,0.597-2.485-0.978-2.962C17.901,0.038,17.671,0.001,17.461,0c-1.459-0.005-1.766,1.719-1.867,2.285
		c-0.15,0.839-0.316,1.676-0.482,2.513c-0.549,2.767-1.116,5.628-1.058,8.551l0.002,0.094c0.016,0.792,0.037,1.777-0.475,2.297
		c-0.268,0.272-0.659,0.404-1.196,0.402c-0.164-0.001-0.344-0.014-0.534-0.041c-0.036-0.005-0.072-0.007-0.107-0.008
		c-0.403-0.001-0.716,0.294-1.018,0.581c-0.087,0.082-0.173,0.164-0.262,0.238c-2.577,2.155-3.714,5.125-4.813,7.998L5.339,25.72
		c-1.033,2.675-2.102,5.441-1.741,8.48c0.163,1.373,0.785,2.131,1.751,2.134c0.422,0.001,0.898-0.146,1.415-0.439
		c1.375-0.778,2.19-1.941,3.135-3.687c1.041-1.925,1.72-3.491,2.266-4.749l0.034-0.078c0.411-0.947,1.049-2.412,1.86-4.251
		c0.152,0.94,0.26,1.885,0.365,2.804c0.209,1.837,0.426,3.737,1.001,5.544c0.494,1.55,1.399,2.372,2.619,2.376
		c0.269,0.001,0.556-0.039,0.853-0.119c0.529-0.143,0.986-0.266,1.373-0.264c0.449,0.002,0.921,0.142,1.325,1.148
		c0.141,0.352,0.484,0.555,0.939,0.557c0.411,0.001,0.867-0.163,1.164-0.418c0.291-0.252,0.59-0.49,0.889-0.729
		c0.9-0.719,1.831-1.463,2.531-2.543c0.946-1.458,1.888-2.952,2.8-4.396c0.469-0.743,0.938-1.486,1.409-2.227
		c0.044-0.069,0.089-0.143,0.135-0.218c0.277-0.456,0.59-0.972,1.041-0.97c0.026,0,0.052,0.002,0.079,0.005
		c0.405,0.05,0.471,0.376,0.547,0.903c0.028,0.196,0.057,0.4,0.119,0.583c0.462,1.381,0.239,2.713,0.003,4.124
		c-0.043,0.255-0.085,0.509-0.124,0.764c-0.043,0.282-0.151,0.593-0.265,0.923c-0.235,0.675-0.477,1.373-0.19,1.949
		c0.171,0.343,0.503,0.59,1.012,0.753c0.012,0.004,0.296,0.098,0.679,0.099c0.22,0.001,0.431-0.029,0.626-0.088
		c0.998-0.303,1.353-1.811,1.729-3.406c0.042-0.178,0.083-0.355,0.126-0.53c0.471-1.934,1.869-5.177,3.394-7.255
		c0.457-0.622,0.955-0.937,1.481-0.935c0.121,0,0.245,0.018,0.37,0.051c0.082,0.022,0.165,0.046,0.25,0.071
		c0.303,0.089,0.617,0.18,0.917,0.182c0.473,0.002,0.817-0.233,1.02-0.699C44.69,20.215,44.566,19.305,43.932,18.669z
		 M11.537,23.082c-1.363,2.999-2.352,6.207-5.021,9.082c0.378-4.122,2.045-7.268,3.543-10.473c0.23-0.492,0.544-0.663,1.048-0.576
		c0.544,0.094,0.381,0.546,0.419,0.871C11.57,22.35,11.676,22.777,11.537,23.082z M23.254,24.782
		c-0.156-0.362-0.234-0.702-0.259-1.024c-0.013-0.169-0.003-0.307,0.008-0.43c0.06-0.707,0.235-1.034,0.362-1.634
		c0.204-0.96,0.01-1.318,0.355-1.622c0.024-0.021,0.339-0.302,0.565-0.189c0.538,0.27,0.248,2.312,0.219,2.521
		c-0.079,0.558-0.25,1.335-0.649,2.209l-0.308,0.85L23.254,24.782z"/>
	<path fill="#0054A6" d="M44.34,47.433c-0.477-0.753-0.926-0.955-1.949-0.786c-1.618,0.267-2.754,1.063-3.747,2.029
		c-1.86,1.809-3.618,3.685-4.78,5.909c-1.252-0.897-0.619-2.213-1.362-3.181c-0.668-0.871-1.036-2.049-2.489-2.096
		c-1.364-0.044-1.915,1.053-2.532,1.868c-0.981,1.296-1.77,2.697-3.577,4.28c-0.067-1.839-0.053-3.146-0.177-4.443
		c-0.146-1.534-1.358-2.973-2.735-3.354c-1.261-0.35-1.563,1.511-2.142,2.449c-1.768,2.864-2.695,6.037-5.045,9.188
		c-0.024-2.892-0.157-5.346-0.815-7.743c-0.486-1.77-1.076-3.881-3.401-4.203c-1.317-0.183-1.106-0.342-0.969-0.993
		c0.948-4.496,2.306-8.918,5.716-12.626c1.334-1.45-0.78-1.863-0.603-2.891c0.092-0.536-0.68-0.542-1.158-0.478
		c-1.213,0.162-1.464,0.982-1.835,1.802c-2.124,4.691-3.671,9.513-4.721,14.416C4.232,54.922,1.671,63.16,0.533,71.593
		c-0.428,3.17-0.941,6.335-0.01,9.504c0.397,1.352,1.473,2.161,2.941,1.949c1.292-0.187,1.353-1.495,1.355-2.444
		c0.009-3.001-0.028-5.995,0.103-9.003c0.18-4.12,0.445-8.234,1.282-12.283c0.589-2.852,0.61-5.949,3.195-8.498
		c0.792,0.827,0.936,1.683,1.142,2.573c0.687,2.966,0.615,5.967,0.677,8.966c0.02,0.987,0.143,2.025,1.648,2.3
		c1.561,0.285,2.072-0.76,2.578-1.588c1.591-2.6,3.078-5.243,4.613-7.882c0.85,1.218,0.961,2.516,0.881,3.819
		c-0.067,1.093,0.771,1.699,1.686,2.136c1.055,0.504,1.372-0.537,1.978-0.938c0.672-0.444,1.043-1.094,1.556-1.64
		c1.388-1.476,1.945-3.409,3.826-4.71c0.7,0.632,0.496,1.362,0.592,2.031c0.274,1.896-0.247,3.752-0.437,5.626
		c-0.094,0.93-0.082,1.828,1.48,2.235c1.705,0.445,1.622-0.572,1.959-1.268c1.672-3.449,3.821-6.706,6.18-9.858
		c0.986-1.318,1.746-2.878,3.815-3.507C44.301,48.892,44.918,48.345,44.34,47.433z"/>
	<path fill="#0054A6" d="M23.852,39.302c1.03,0.316,2.016,0.889,2.116,1.778c0.121,1.073-1.241,1.47-2.158,1.56
		c-1.053,0.104-2.134-0.541-2.127-1.529C21.69,40.138,22.714,39.628,23.852,39.302z"/>
	<path fill="#0054A6" d="M29.555,39.924c0.906-0.056,1.363,0.679,1.461,1.536c0.098,0.855-0.801,1.339-1.563,1.305
		c-0.906-0.041-1.975-0.342-1.974-1.442C27.48,40.38,28.072,39.926,29.555,39.924z"/>
	<g>
		<path fill="#0054A6" d="M45.987,68.898c-0.062-0.106-0.092-0.236-0.092-0.389V37.593c0-0.152,0.03-0.282,0.092-0.389
			c0.061-0.106,0.135-0.16,0.223-0.16h3.072c0.087,0,0.162,0.053,0.223,0.16c0.061,0.107,0.092,0.237,0.092,0.389v11.525
			c0,0.122,0.022,0.191,0.066,0.206c0.043,0.015,0.074-0.038,0.092-0.16l3.388-11.708c0.087-0.274,0.21-0.411,0.368-0.411h3.256
			c0.122,0,0.206,0.053,0.25,0.16c0.043,0.107,0.039,0.268-0.013,0.48l-3.887,13.172c-0.018,0.122-0.026,0.214-0.026,0.275
			l4.123,17.287c0.017,0.062,0.026,0.153,0.026,0.275c0,0.245-0.088,0.366-0.263,0.366h-3.283c-0.193,0-0.315-0.137-0.368-0.412
			l-2.731-11.982c-0.018-0.092-0.044-0.13-0.079-0.114c-0.035,0.015-0.07,0.054-0.105,0.114l-0.762,2.378
			c-0.035,0.122-0.052,0.214-0.052,0.275v9.192c0,0.153-0.031,0.282-0.092,0.389c-0.062,0.107-0.136,0.16-0.223,0.16H46.21
			C46.122,69.058,46.048,69.005,45.987,68.898z"/>
		<path fill="#0054A6" d="M65.669,68.601l-2.022-12.623c-0.035-0.122-0.079-0.183-0.131-0.183h-0.893
			c-0.088,0-0.131,0.077-0.131,0.229v12.485c0,0.153-0.031,0.282-0.092,0.389c-0.062,0.107-0.136,0.16-0.223,0.16h-3.072
			c-0.088,0-0.162-0.053-0.223-0.16c-0.062-0.106-0.092-0.236-0.092-0.389V37.593c0-0.152,0.03-0.282,0.092-0.389
			c0.061-0.106,0.135-0.16,0.223-0.16h5.305c0.963,0,1.821,0.404,2.574,1.212c0.753,0.808,1.335,1.944,1.746,3.407
			c0.411,1.464,0.617,3.141,0.617,5.031c0,1.799-0.197,3.384-0.591,4.756c-0.394,1.372-0.941,2.44-1.641,3.201
			c-0.035,0.031-0.062,0.069-0.079,0.114c-0.018,0.046-0.018,0.099,0,0.16l2.416,13.491l0.026,0.183
			c0,0.305-0.096,0.457-0.289,0.457h-3.151C65.844,69.058,65.721,68.906,65.669,68.601z M62.491,42.807v7.82
			c0,0.153,0.044,0.229,0.131,0.229h1.182c0.542,0,0.985-0.373,1.326-1.121c0.341-0.746,0.512-1.745,0.512-2.995
			c0-1.28-0.171-2.294-0.512-3.041c-0.341-0.747-0.784-1.12-1.326-1.12h-1.182C62.535,42.579,62.491,42.655,62.491,42.807z"/>
		<path fill="#0054A6" d="M80.703,42.418c-0.062,0.107-0.136,0.16-0.223,0.16h-5.489c-0.088,0-0.131,0.076-0.131,0.229v7.226
			c0,0.153,0.044,0.229,0.131,0.229h3.151c0.087,0,0.162,0.054,0.223,0.16c0.061,0.107,0.092,0.236,0.092,0.389v4.436
			c0,0.153-0.031,0.282-0.092,0.389c-0.062,0.107-0.136,0.16-0.223,0.16h-3.151c-0.088,0-0.131,0.077-0.131,0.229v7.272
			c0,0.153,0.044,0.229,0.131,0.229h5.489c0.087,0,0.162,0.054,0.223,0.16c0.061,0.107,0.092,0.237,0.092,0.389v4.436
			c0,0.153-0.031,0.282-0.092,0.389c-0.062,0.107-0.136,0.16-0.223,0.16h-9.007c-0.088,0-0.162-0.053-0.223-0.16
			c-0.062-0.106-0.092-0.236-0.092-0.389V37.593c0-0.152,0.03-0.282,0.092-0.389c0.061-0.106,0.135-0.16,0.223-0.16h9.007
			c0.087,0,0.162,0.053,0.223,0.16c0.061,0.107,0.092,0.237,0.092,0.389v4.436C80.795,42.183,80.764,42.312,80.703,42.418z"/>
		<path fill="#0054A6" d="M84.011,66.84c-0.954-1.722-1.431-4.017-1.431-6.883V37.593c0-0.152,0.03-0.282,0.092-0.389
			c0.061-0.106,0.135-0.16,0.223-0.16h3.072c0.088,0,0.162,0.053,0.223,0.16c0.061,0.107,0.092,0.237,0.092,0.389v23.004
			c0,0.976,0.14,1.769,0.42,2.378c0.28,0.61,0.647,0.915,1.103,0.915c0.455,0,0.818-0.305,1.09-0.915
			c0.271-0.609,0.407-1.402,0.407-2.378V37.593c0-0.152,0.03-0.282,0.092-0.389c0.061-0.106,0.136-0.16,0.223-0.16h3.072
			c0.088,0,0.162,0.053,0.223,0.16c0.061,0.107,0.092,0.237,0.092,0.389v22.364c0,2.866-0.477,5.161-1.431,6.883
			c-0.954,1.723-2.211,2.584-3.768,2.584C86.23,69.424,84.965,68.563,84.011,66.84z"/>
		<path fill="#0054A6" d="M94.699,68.898c-0.062-0.106-0.092-0.236-0.092-0.389V63.89c0-0.244,0.026-0.473,0.079-0.686l5.619-20.351
			c0.017-0.092,0.017-0.16,0-0.206c-0.017-0.046-0.052-0.068-0.105-0.068h-5.278c-0.088,0-0.162-0.053-0.223-0.16
			c-0.062-0.107-0.092-0.236-0.092-0.389v-4.436c0-0.152,0.03-0.282,0.092-0.389c0.061-0.106,0.136-0.16,0.223-0.16h9.033
			c0.087,0,0.162,0.053,0.223,0.16c0.061,0.107,0.092,0.237,0.092,0.389v4.619c0,0.213-0.026,0.442-0.079,0.686l-5.62,20.351
			c-0.017,0.092-0.017,0.16,0,0.206c0.017,0.046,0.053,0.069,0.105,0.069h5.278c0.087,0,0.162,0.054,0.223,0.16
			c0.061,0.107,0.092,0.237,0.092,0.389v4.436c0,0.153-0.031,0.282-0.092,0.389c-0.062,0.107-0.136,0.16-0.223,0.16h-9.033
			C94.835,69.058,94.76,69.005,94.699,68.898z"/>
		<path fill="#0054A6" d="M115.143,66.772c-0.981,1.525-2.25,2.287-3.808,2.287h-4.963c-0.088,0-0.162-0.053-0.223-0.16
			c-0.061-0.106-0.092-0.236-0.092-0.389V37.593c0-0.152,0.03-0.282,0.092-0.389c0.061-0.106,0.136-0.16,0.223-0.16h4.386
			c1.751,0,3.121,0.731,4.11,2.195c0.989,1.463,1.484,3.644,1.484,6.54c0,3.018-0.596,5.214-1.786,6.586
			c-0.07,0.092-0.079,0.183-0.026,0.274c1.383,1.708,2.074,4.238,2.074,7.592C116.613,63.067,116.123,65.247,115.143,66.772z
			 M109.759,42.807v7.18c0,0.153,0.044,0.229,0.131,0.229h0.945c0.595,0,1.059-0.327,1.392-0.983
			c0.332-0.655,0.499-1.578,0.499-2.767c0-1.25-0.162-2.21-0.486-2.881c-0.324-0.67-0.792-1.006-1.405-1.006h-0.945
			C109.803,42.579,109.759,42.655,109.759,42.807z M112.412,62.381c0.332-0.732,0.499-1.768,0.499-3.11
			c0-1.341-0.167-2.408-0.499-3.201c-0.333-0.792-0.779-1.189-1.34-1.189h-1.182c-0.087,0-0.131,0.076-0.131,0.229v8.14
			c0,0.153,0.044,0.229,0.131,0.229h1.156C111.624,63.479,112.079,63.113,112.412,62.381z"/>
		<path fill="#0054A6" d="M127.866,42.418c-0.061,0.107-0.136,0.16-0.223,0.16h-5.488c-0.088,0-0.131,0.076-0.131,0.229v7.226
			c0,0.153,0.044,0.229,0.131,0.229h3.151c0.087,0,0.162,0.054,0.223,0.16c0.061,0.107,0.092,0.236,0.092,0.389v4.436
			c0,0.153-0.031,0.282-0.092,0.389c-0.062,0.107-0.136,0.16-0.223,0.16h-3.151c-0.088,0-0.131,0.077-0.131,0.229v7.272
			c0,0.153,0.044,0.229,0.131,0.229h5.488c0.087,0,0.162,0.054,0.223,0.16c0.061,0.107,0.092,0.237,0.092,0.389v4.436
			c0,0.153-0.031,0.282-0.092,0.389c-0.061,0.107-0.136,0.16-0.223,0.16h-9.007c-0.088,0-0.162-0.053-0.223-0.16
			c-0.062-0.106-0.092-0.236-0.092-0.389V37.593c0-0.152,0.03-0.282,0.092-0.389c0.061-0.106,0.136-0.16,0.223-0.16h9.007
			c0.087,0,0.162,0.053,0.223,0.16c0.061,0.107,0.092,0.237,0.092,0.389v4.436C127.958,42.183,127.927,42.312,127.866,42.418z"/>
		<path fill="#0054A6" d="M136.702,68.601l-2.023-12.623c-0.035-0.122-0.079-0.183-0.131-0.183h-0.893
			c-0.088,0-0.132,0.077-0.132,0.229v12.485c0,0.153-0.031,0.282-0.091,0.389c-0.062,0.107-0.136,0.16-0.224,0.16h-3.072
			c-0.088,0-0.162-0.053-0.223-0.16c-0.062-0.106-0.092-0.236-0.092-0.389V37.593c0-0.152,0.03-0.282,0.092-0.389
			c0.061-0.106,0.135-0.16,0.223-0.16h5.304c0.962,0,1.82,0.404,2.574,1.212c0.752,0.808,1.335,1.944,1.746,3.407
			c0.411,1.464,0.617,3.141,0.617,5.031c0,1.799-0.197,3.384-0.591,4.756c-0.394,1.372-0.942,2.44-1.641,3.201
			c-0.036,0.031-0.061,0.069-0.079,0.114c-0.017,0.046-0.017,0.099,0,0.16l2.416,13.491l0.026,0.183
			c0,0.305-0.096,0.457-0.289,0.457h-3.152C136.877,69.058,136.755,68.906,136.702,68.601z M133.524,42.807v7.82
			c0,0.153,0.044,0.229,0.132,0.229h1.181c0.543,0,0.985-0.373,1.326-1.121c0.342-0.746,0.512-1.745,0.512-2.995
			c0-1.28-0.171-2.294-0.512-3.041c-0.342-0.747-0.783-1.12-1.326-1.12h-1.181C133.568,42.579,133.524,42.655,133.524,42.807z"/>
		<path fill="#0054A6" d="M143.359,67.069c-0.954-1.57-1.431-3.666-1.431-6.288V45.322c0-2.622,0.477-4.718,1.431-6.289
			c0.954-1.57,2.219-2.355,3.795-2.355c1.575,0,2.845,0.793,3.808,2.378c0.962,1.586,1.444,3.69,1.444,6.311v1.738
			c0,0.153-0.031,0.282-0.092,0.389c-0.062,0.107-0.136,0.16-0.223,0.16h-3.072c-0.088,0-0.162-0.053-0.223-0.16
			c-0.062-0.107-0.092-0.236-0.092-0.389v-1.829c0-0.914-0.14-1.653-0.42-2.218c-0.28-0.564-0.657-0.846-1.129-0.846
			c-0.455,0-0.823,0.282-1.103,0.846c-0.281,0.565-0.42,1.303-0.42,2.218v15.55c0,0.915,0.14,1.655,0.42,2.218
			c0.28,0.565,0.647,0.846,1.103,0.846c0.473,0,0.849-0.282,1.129-0.846c0.28-0.564,0.42-1.303,0.42-2.218v-3.658
			c0-0.153-0.044-0.229-0.131-0.229h-1.156c-0.088,0-0.162-0.053-0.223-0.16c-0.062-0.107-0.092-0.236-0.092-0.389v-4.07
			c0-0.152,0.03-0.282,0.092-0.389c0.061-0.107,0.135-0.16,0.223-0.16h4.674c0.087,0,0.162,0.053,0.223,0.16
			c0.061,0.107,0.092,0.237,0.092,0.389v8.461c0,2.622-0.482,4.718-1.444,6.288c-0.963,1.571-2.232,2.355-3.808,2.355
			C145.578,69.424,144.313,68.639,143.359,67.069z"/>
	</g>
</g>
</svg>
