<?xml version="1.0" encoding="utf-8"?>
<!-- Generator: Adobe Illustrator 24.2.3, SVG Export Plug-In . SVG Version: 6.00 Build 0)  -->
<svg version="1.1" id="Layer_1" xmlns="http://www.w3.org/2000/svg" xmlns:xlink="http://www.w3.org/1999/xlink" x="0px" y="0px"
	 viewBox="0 0 181.2 83.1" style="enable-background:new 0 0 181.2 83.1;" xml:space="preserve">
<style type="text/css">
	.st0{fill:#00387B;}
</style>
<g>
	<path class="st0" d="M54.1,4.8c0.8,0.8,1.3,2,1.7,3.5c0.4,1.5,0.6,3.2,0.6,5.1c0,2.8-0.4,5.1-1.3,6.8c-0.9,1.7-2,2.6-3.4,2.6h-2
		c-0.1,0-0.1,0.1-0.1,0.2V35c0,0.2,0,0.3-0.1,0.4c-0.1,0.1-0.1,0.2-0.2,0.2h-3.1c-0.1,0-0.2-0.1-0.2-0.2c-0.1-0.1-0.1-0.2-0.1-0.4
		v-31c0-0.2,0-0.3,0.1-0.4c0.1-0.1,0.1-0.2,0.2-0.2h5.3C52.5,3.5,53.3,3.9,54.1,4.8z M52.2,16.5c0.3-0.7,0.5-1.8,0.5-3.1
		c0-1.3-0.2-2.4-0.5-3.2c-0.3-0.8-0.8-1.1-1.4-1.1h-1.2c-0.1,0-0.1,0.1-0.1,0.2v8c0,0.2,0,0.2,0.1,0.2h1.2
		C51.4,17.6,51.9,17.3,52.2,16.5z"/>
	<path class="st0" d="M67.6,9c-0.1,0.1-0.1,0.2-0.2,0.2h-5.5c-0.1,0-0.1,0.1-0.1,0.2v7.2c0,0.2,0,0.2,0.1,0.2h3.1
		c0.1,0,0.2,0.1,0.2,0.2c0.1,0.1,0.1,0.2,0.1,0.4v4.4c0,0.2,0,0.3-0.1,0.4c-0.1,0.1-0.1,0.2-0.2,0.2h-3.1c-0.1,0-0.1,0.1-0.1,0.2V35
		c0,0.2,0,0.3-0.1,0.4c-0.1,0.1-0.1,0.2-0.2,0.2h-3.1c-0.1,0-0.2-0.1-0.2-0.2c-0.1-0.1-0.1-0.2-0.1-0.4V4.1c0-0.2,0-0.3,0.1-0.4
		c0.1-0.1,0.1-0.2,0.2-0.2h9c0.1,0,0.2,0.1,0.2,0.2c0.1,0.1,0.1,0.2,0.1,0.4v4.4C67.7,8.7,67.7,8.8,67.6,9z"/>
	<path class="st0" d="M69.3,35.4c-0.1-0.1-0.1-0.2-0.1-0.4V4.1c0-0.2,0-0.3,0.1-0.4c0.1-0.1,0.1-0.2,0.2-0.2h3.1
		c0.1,0,0.2,0.1,0.2,0.2c0.1,0.1,0.1,0.2,0.1,0.4v25.7c0,0.2,0,0.2,0.1,0.2h5.5c0.1,0,0.2,0.1,0.2,0.2c0.1,0.1,0.1,0.2,0.1,0.4V35
		c0,0.2,0,0.3-0.1,0.4c-0.1,0.1-0.1,0.2-0.2,0.2h-9C69.4,35.6,69.3,35.5,69.3,35.4z"/>
	<path class="st0" d="M89.9,9c-0.1,0.1-0.1,0.2-0.2,0.2h-5.5c-0.1,0-0.1,0.1-0.1,0.2v7.2c0,0.2,0,0.2,0.1,0.2h3.2
		c0.1,0,0.2,0.1,0.2,0.2c0.1,0.1,0.1,0.2,0.1,0.4v4.4c0,0.2,0,0.3-0.1,0.4c-0.1,0.1-0.1,0.2-0.2,0.2h-3.2c-0.1,0-0.1,0.1-0.1,0.2
		v7.3c0,0.2,0,0.2,0.1,0.2h5.5c0.1,0,0.2,0.1,0.2,0.2c0.1,0.1,0.1,0.2,0.1,0.4V35c0,0.2,0,0.3-0.1,0.4c-0.1,0.1-0.1,0.2-0.2,0.2h-9
		c-0.1,0-0.2-0.1-0.2-0.2c-0.1-0.1-0.1-0.2-0.1-0.4V4.1c0-0.2,0-0.3,0.1-0.4c0.1-0.1,0.1-0.2,0.2-0.2h9c0.1,0,0.2,0.1,0.2,0.2
		C90,3.9,90,4,90,4.1v4.4C90,8.7,90,8.8,89.9,9z"/>
	<path class="st0" d="M93,33.6c-1-1.6-1.4-3.7-1.4-6.3V11.9c0-2.6,0.5-4.7,1.4-6.3c1-1.6,2.2-2.4,3.8-2.4c1.6,0,2.8,0.8,3.8,2.4
		c1,1.6,1.4,3.7,1.4,6.3v1.7c0,0.2,0,0.3-0.1,0.4c-0.1,0.1-0.1,0.2-0.2,0.2h-3.1c-0.1,0-0.2-0.1-0.2-0.2c-0.1-0.1-0.1-0.2-0.1-0.4
		v-1.8c0-0.9-0.1-1.7-0.4-2.2c-0.3-0.6-0.7-0.8-1.1-0.8c-0.5,0-0.8,0.3-1.1,0.8c-0.3,0.6-0.4,1.3-0.4,2.2v15.5
		c0,0.9,0.1,1.7,0.4,2.2c0.3,0.6,0.6,0.8,1.1,0.8c0.5,0,0.8-0.3,1.1-0.8c0.3-0.6,0.4-1.3,0.4-2.2v-3.7c0-0.2,0-0.2-0.1-0.2h-1.2
		c-0.1,0-0.2-0.1-0.2-0.2c-0.1-0.1-0.1-0.2-0.1-0.4v-4.1c0-0.2,0-0.3,0.1-0.4c0.1-0.1,0.1-0.2,0.2-0.2h4.7c0.1,0,0.2,0.1,0.2,0.2
		c0.1,0.1,0.1,0.2,0.1,0.4v8.5c0,2.6-0.5,4.7-1.4,6.3c-1,1.6-2.2,2.4-3.8,2.4C95.2,36,94,35.2,93,33.6z"/>
	<path class="st0" d="M113.7,9c-0.1,0.1-0.1,0.2-0.2,0.2h-5.5c-0.1,0-0.1,0.1-0.1,0.2v7.2c0,0.2,0,0.2,0.1,0.2h3.2
		c0.1,0,0.2,0.1,0.2,0.2c0.1,0.1,0.1,0.2,0.1,0.4v4.4c0,0.2,0,0.3-0.1,0.4c-0.1,0.1-0.1,0.2-0.2,0.2h-3.2c-0.1,0-0.1,0.1-0.1,0.2
		v7.3c0,0.2,0,0.2,0.1,0.2h5.5c0.1,0,0.2,0.1,0.2,0.2c0.1,0.1,0.1,0.2,0.1,0.4V35c0,0.2,0,0.3-0.1,0.4c-0.1,0.1-0.1,0.2-0.2,0.2h-9
		c-0.1,0-0.2-0.1-0.2-0.2c-0.1-0.1-0.1-0.2-0.1-0.4V4.1c0-0.2,0-0.3,0.1-0.4c0.1-0.1,0.1-0.2,0.2-0.2h9c0.1,0,0.2,0.1,0.2,0.2
		c0.1,0.1,0.1,0.2,0.1,0.4v4.4C113.8,8.7,113.7,8.8,113.7,9z"/>
	<path class="st0" d="M115.7,35.4c-0.1-0.1-0.1-0.2-0.1-0.4V4.1c0-0.2,0-0.3,0.1-0.4c0.1-0.1,0.1-0.2,0.2-0.2h4.8
		c1.6,0,2.9,0.8,3.8,2.4c1,1.6,1.4,3.8,1.4,6.4v14.3c0,2.7-0.5,4.8-1.4,6.4c-1,1.6-2.2,2.4-3.8,2.4h-4.8
		C115.8,35.6,115.8,35.5,115.7,35.4z M119.4,30.1l1.2,0c0.5,0,0.9-0.4,1.2-1.1c0.3-0.7,0.5-1.6,0.5-2.7V12.9c0-1.2-0.1-2.1-0.4-2.7
		c-0.3-0.7-0.7-1-1.2-1h-1.2c-0.1,0-0.1,0.1-0.1,0.2v20.5C119.3,30,119.4,30.1,119.4,30.1z"/>
	<path class="st0" d="M128.2,35.4c-0.1-0.1-0.1-0.2-0.1-0.4V4.1c0-0.2,0-0.3,0.1-0.4c0.1-0.1,0.1-0.2,0.2-0.2h3.1
		c0.1,0,0.2,0.1,0.2,0.2c0.1,0.1,0.1,0.2,0.1,0.4V35c0,0.2,0,0.3-0.1,0.4c-0.1,0.1-0.1,0.2-0.2,0.2h-3.1
		C128.3,35.6,128.3,35.5,128.2,35.4z"/>
	<path class="st0" d="M143.7,9c-0.1,0.1-0.1,0.2-0.2,0.2H138c-0.1,0-0.1,0.1-0.1,0.2v7.2c0,0.2,0,0.2,0.1,0.2h3.2
		c0.1,0,0.2,0.1,0.2,0.2c0.1,0.1,0.1,0.2,0.1,0.4v4.4c0,0.2,0,0.3-0.1,0.4c-0.1,0.1-0.1,0.2-0.2,0.2H138c-0.1,0-0.1,0.1-0.1,0.2v7.3
		c0,0.2,0,0.2,0.1,0.2h5.5c0.1,0,0.2,0.1,0.2,0.2c0.1,0.1,0.1,0.2,0.1,0.4V35c0,0.2,0,0.3-0.1,0.4c-0.1,0.1-0.1,0.2-0.2,0.2h-9
		c-0.1,0-0.2-0.1-0.2-0.2c-0.1-0.1-0.1-0.2-0.1-0.4V4.1c0-0.2,0-0.3,0.1-0.4c0.1-0.1,0.1-0.2,0.2-0.2h9c0.1,0,0.2,0.1,0.2,0.2
		c0.1,0.1,0.1,0.2,0.1,0.4v4.4C143.8,8.7,143.8,8.8,143.7,9z"/>
	<path class="st0" d="M153.3,3.7c0.1-0.1,0.1-0.2,0.2-0.2h3c0.1,0,0.2,0.1,0.2,0.2c0.1,0.1,0.1,0.2,0.1,0.4V35c0,0.2,0,0.3-0.1,0.4
		c-0.1,0.1-0.1,0.2-0.2,0.2h-3.5c-0.2,0-0.3-0.2-0.3-0.5l-3.3-17.7c0-0.1,0-0.1-0.1-0.1c0,0-0.1,0.1-0.1,0.2l0,17.6
		c0,0.2,0,0.3-0.1,0.4c-0.1,0.1-0.1,0.2-0.2,0.2h-3c-0.1,0-0.2-0.1-0.2-0.2c-0.1-0.1-0.1-0.2-0.1-0.4V4.1c0-0.2,0-0.3,0.1-0.4
		c0.1-0.1,0.1-0.2,0.2-0.2h3.4c0.2,0,0.3,0.2,0.3,0.5l3.3,17.7c0,0.1,0,0.1,0.1,0.1c0,0,0.1-0.1,0.1-0.2l0-17.6
		C153.2,4,153.2,3.9,153.3,3.7z"/>
	<path class="st0" d="M161.2,34.9c-0.8-0.7-1.4-1.7-1.8-2.9c-0.4-1.3-0.6-2.7-0.6-4.4v-1.3c0-0.2,0-0.3,0.1-0.4
		c0.1-0.1,0.1-0.2,0.2-0.2h3c0.1,0,0.2,0.1,0.2,0.2c0.1,0.1,0.1,0.2,0.1,0.4v1c0,0.9,0.1,1.7,0.4,2.3c0.3,0.6,0.6,0.9,1.1,0.9
		s0.8-0.3,1.1-0.8c0.3-0.5,0.4-1.3,0.4-2.1c0-0.9-0.2-1.7-0.5-2.4c-0.4-0.7-1-1.6-2-2.9c-0.9-1.1-1.6-2.1-2.1-2.9
		c-0.5-0.9-1-1.9-1.4-3.2c-0.4-1.2-0.6-2.7-0.6-4.3c0-2.6,0.5-4.7,1.4-6.2c0.9-1.6,2.2-2.3,3.7-2.3c1.5,0,2.8,0.8,3.7,2.4
		c0.9,1.6,1.4,3.7,1.4,6.4v1.1c0,0.2,0,0.3-0.1,0.4c-0.1,0.1-0.1,0.2-0.2,0.2h-3c-0.1,0-0.2-0.1-0.2-0.2c-0.1-0.1-0.1-0.2-0.1-0.4
		v-1.2c0-0.9-0.1-1.7-0.4-2.3c-0.3-0.6-0.6-0.8-1.1-0.8c-0.4,0-0.8,0.3-1,0.8c-0.3,0.5-0.4,1.3-0.4,2.2c0,0.9,0.2,1.7,0.5,2.4
		c0.3,0.7,1,1.7,2,2.9c1.1,1.4,1.9,2.5,2.5,3.4c0.6,0.9,1,1.8,1.3,2.9c0.3,1.1,0.5,2.3,0.5,3.8c0,2.7-0.5,4.8-1.4,6.4
		c-0.9,1.6-2.2,2.4-3.7,2.4C162.9,36,162,35.6,161.2,34.9z"/>
	<path class="st0" d="M181.1,3.7c0.1,0.1,0.1,0.2,0.1,0.4v4.4c0,0.2,0,0.3-0.1,0.4c-0.1,0.1-0.1,0.2-0.2,0.2h-3.3
		c-0.1,0-0.1,0.1-0.1,0.2V35c0,0.2,0,0.3-0.1,0.4c-0.1,0.1-0.1,0.2-0.2,0.2H174c-0.1,0-0.2-0.1-0.2-0.2c-0.1-0.1-0.1-0.2-0.1-0.4
		V9.3c0-0.2,0-0.2-0.1-0.2h-3.2c-0.1,0-0.2-0.1-0.2-0.2c-0.1-0.1-0.1-0.2-0.1-0.4V4.1c0-0.2,0-0.3,0.1-0.4c0.1-0.1,0.1-0.2,0.2-0.2
		h10.4C180.9,3.6,181,3.6,181.1,3.7z"/>
	<path class="st0" d="M43.9,18.7c-0.5-0.5-1-0.7-1.5-0.7c-0.3,0-0.7,0.1-1.1,0.2c-1.5,0.6-2.4,1.6-3.4,2.6c-0.5,0.6-1.1,1.1-1.7,1.6
		c0,0-0.1-0.1-0.1-0.1c-0.2-0.3-0.4-0.6-0.6-1c-0.1-0.2-0.2-0.5-0.3-0.7c-0.1-0.3-0.2-0.6-0.4-0.9c-0.6-1.1-1.4-1.8-2.2-1.8
		c-0.7,0-1.3,0.4-1.7,1.3l-0.3,0.6c-1.6,3-3.2,6.1-5.1,9c-0.1,0.2-0.2,0.4-0.3,0.5c-0.3,0.6-0.5,0.9-0.9,0.9c-0.1,0-0.2,0-0.3-0.1
		c-0.5-0.2-0.4-0.5-0.1-1.2c0.1-0.2,0.2-0.5,0.2-0.7c0-0.1,0.2-0.3,0.3-0.5c0.1-0.1,0.2-0.2,0.3-0.4c1.6-2.9,3.1-5.8,3-9.3
		c0-1.1-0.3-2.3-1.4-2.7c-0.3-0.1-0.7-0.2-1-0.2c-1,0-1.9,0.5-2.4,1.3l-0.1,0.2c-0.6,0.9-1.2,1.8-1.4,3c-0.6,3.4-1.1,6.2-1.3,9.2
		c-0.1,0.8-0.3,1.1-1,1.1c0,0-0.1,0-0.1,0c-0.5,0-0.8-0.3-1-1c-0.8-3-1-6.2-1.1-8.9c-0.2-5.7,1-11.3,2.3-17c0.2-0.9,0.6-2.5-1-3
		C17.9,0,17.7,0,17.5,0c-1.5,0-1.8,1.7-1.9,2.3c-0.1,0.8-0.3,1.7-0.5,2.5c-0.5,2.8-1.1,5.6-1.1,8.6l0,0.1c0,0.8,0,1.8-0.5,2.3
		c-0.3,0.3-0.7,0.4-1.2,0.4c-0.2,0-0.3,0-0.5,0c0,0-0.1,0-0.1,0c-0.4,0-0.7,0.3-1,0.6c-0.1,0.1-0.2,0.2-0.3,0.2
		c-2.6,2.2-3.7,5.1-4.8,8l-0.3,0.8c-1,2.7-2.1,5.4-1.7,8.5c0.2,1.4,0.8,2.1,1.8,2.1c0.4,0,0.9-0.1,1.4-0.4C8.1,35.1,9,34,9.9,32.2
		c1-1.9,1.7-3.5,2.3-4.7l0-0.1c0.4-0.9,1-2.4,1.9-4.3c0.2,0.9,0.3,1.9,0.4,2.8c0.2,1.8,0.4,3.7,1,5.5c0.5,1.6,1.4,2.4,2.6,2.4
		c0.3,0,0.6,0,0.9-0.1c0.5-0.1,1-0.3,1.4-0.3c0.4,0,0.9,0.1,1.3,1.1c0.1,0.4,0.5,0.6,0.9,0.6c0.4,0,0.9-0.2,1.2-0.4
		c0.3-0.3,0.6-0.5,0.9-0.7c0.9-0.7,1.8-1.5,2.5-2.5c0.9-1.5,1.9-3,2.8-4.4c0.5-0.7,0.9-1.5,1.4-2.2c0-0.1,0.1-0.1,0.1-0.2
		c0.3-0.5,0.6-1,1-1c0,0,0.1,0,0.1,0c0.4,0,0.5,0.4,0.5,0.9c0,0.2,0.1,0.4,0.1,0.6c0.5,1.4,0.2,2.7,0,4.1c0,0.3-0.1,0.5-0.1,0.8
		c0,0.3-0.2,0.6-0.3,0.9c-0.2,0.7-0.5,1.4-0.2,1.9c0.2,0.3,0.5,0.6,1,0.8c0,0,0.3,0.1,0.7,0.1c0.2,0,0.4,0,0.6-0.1
		c1-0.3,1.4-1.8,1.7-3.4c0-0.2,0.1-0.4,0.1-0.5c0.5-1.9,1.9-5.2,3.4-7.3c0.5-0.6,1-0.9,1.5-0.9c0.1,0,0.2,0,0.4,0.1
		c0.1,0,0.2,0,0.2,0.1c0.3,0.1,0.6,0.2,0.9,0.2c0.5,0,0.8-0.2,1-0.7C44.7,20.2,44.6,19.3,43.9,18.7z M11.5,23.1
		c-1.4,3-2.4,6.2-5,9.1c0.4-4.1,2-7.3,3.5-10.5c0.2-0.5,0.5-0.7,1-0.6c0.5,0.1,0.4,0.5,0.4,0.9C11.6,22.4,11.7,22.8,11.5,23.1z
		 M23.3,24.8c-0.2-0.4-0.2-0.7-0.3-1c0-0.2,0-0.3,0-0.4c0.1-0.7,0.2-1,0.4-1.6c0.2-1,0-1.3,0.4-1.6c0,0,0.3-0.3,0.6-0.2
		c0.5,0.3,0.2,2.3,0.2,2.5c-0.1,0.6-0.2,1.3-0.6,2.2l-0.3,0.8L23.3,24.8z"/>
	<path class="st0" d="M44.3,47.4c-0.5-0.8-0.9-1-1.9-0.8c-1.6,0.3-2.8,1.1-3.7,2c-1.9,1.8-3.6,3.7-4.8,5.9c-1.3-0.9-0.6-2.2-1.4-3.2
		c-0.7-0.9-1-2-2.5-2.1c-1.4,0-1.9,1.1-2.5,1.9c-1,1.3-1.8,2.7-3.6,4.3c-0.1-1.8-0.1-3.1-0.2-4.4c-0.1-1.5-1.4-3-2.7-3.4
		c-1.3-0.3-1.6,1.5-2.1,2.4c-1.8,2.9-2.7,6-5,9.2c0-2.9-0.2-5.3-0.8-7.7c-0.5-1.8-1.1-3.9-3.4-4.2c-1.3-0.2-1.1-0.3-1-1
		c0.9-4.5,2.3-8.9,5.7-12.6c1.3-1.5-0.8-1.9-0.6-2.9c0.1-0.5-0.7-0.5-1.2-0.5c-1.2,0.2-1.5,1-1.8,1.8C8.6,36.9,7.1,41.7,6,46.6
		c-1.8,8.3-4.3,16.6-5.5,25c-0.4,3.2-0.9,6.3,0,9.5C0.9,82.4,2,83.3,3.5,83c1.3-0.2,1.4-1.5,1.4-2.4c0-3,0-6,0.1-9
		c0.2-4.1,0.4-8.2,1.3-12.3c0.6-2.9,0.6-5.9,3.2-8.5c0.8,0.8,0.9,1.7,1.1,2.6c0.7,3,0.6,6,0.7,9c0,1,0.1,2,1.6,2.3
		c1.6,0.3,2.1-0.8,2.6-1.6c1.6-2.6,3.1-5.2,4.6-7.9c0.8,1.2,1,2.5,0.9,3.8c-0.1,1.1,0.8,1.7,1.7,2.1c1.1,0.5,1.4-0.5,2-0.9
		c0.7-0.4,1-1.1,1.6-1.6c1.4-1.5,1.9-3.4,3.8-4.7c0.7,0.6,0.5,1.4,0.6,2c0.3,1.9-0.2,3.8-0.4,5.6c-0.1,0.9-0.1,1.8,1.5,2.2
		c1.7,0.4,1.6-0.6,2-1.3c1.7-3.4,3.8-6.7,6.2-9.9c1-1.3,1.7-2.9,3.8-3.5C44.3,48.9,44.9,48.3,44.3,47.4z"/>
	<path class="st0" d="M23.9,39.3c1,0.3,2,0.9,2.1,1.8c0.1,1.1-1.2,1.5-2.2,1.6c-1.1,0.1-2.1-0.5-2.1-1.5
		C21.7,40.1,22.7,39.6,23.9,39.3z"/>
	<path class="st0" d="M29.6,39.9c0.9-0.1,1.4,0.7,1.5,1.5c0.1,0.9-0.8,1.3-1.6,1.3c-0.9,0-2-0.3-2-1.4
		C27.5,40.4,28.1,39.9,29.6,39.9z"/>
	<g>
		<path class="st0" d="M46,68.9c-0.1-0.1-0.1-0.2-0.1-0.4V37.6c0-0.2,0-0.3,0.1-0.4c0.1-0.1,0.1-0.2,0.2-0.2h3.1
			c0.1,0,0.2,0.1,0.2,0.2c0.1,0.1,0.1,0.2,0.1,0.4v11.5c0,0.1,0,0.2,0.1,0.2c0,0,0.1,0,0.1-0.2l3.4-11.7c0.1-0.3,0.2-0.4,0.4-0.4
			h3.3c0.1,0,0.2,0.1,0.2,0.2c0,0.1,0,0.3,0,0.5l-3.9,13.2c0,0.1,0,0.2,0,0.3l4.1,17.3c0,0.1,0,0.2,0,0.3c0,0.2-0.1,0.4-0.3,0.4
			h-3.3c-0.2,0-0.3-0.1-0.4-0.4l-2.7-12c0-0.1,0-0.1-0.1-0.1c0,0-0.1,0.1-0.1,0.1L49.6,59c0,0.1-0.1,0.2-0.1,0.3v9.2
			c0,0.2,0,0.3-0.1,0.4c-0.1,0.1-0.1,0.2-0.2,0.2h-3.1C46.1,69.1,46,69,46,68.9z"/>
		<path class="st0" d="M65.7,68.6l-2-12.6c0-0.1-0.1-0.2-0.1-0.2h-0.9c-0.1,0-0.1,0.1-0.1,0.2v12.5c0,0.2,0,0.3-0.1,0.4
			c-0.1,0.1-0.1,0.2-0.2,0.2h-3.1c-0.1,0-0.2-0.1-0.2-0.2c-0.1-0.1-0.1-0.2-0.1-0.4V37.6c0-0.2,0-0.3,0.1-0.4
			c0.1-0.1,0.1-0.2,0.2-0.2h5.3c1,0,1.8,0.4,2.6,1.2c0.8,0.8,1.3,1.9,1.7,3.4c0.4,1.5,0.6,3.1,0.6,5c0,1.8-0.2,3.4-0.6,4.8
			c-0.4,1.4-0.9,2.4-1.6,3.2c0,0-0.1,0.1-0.1,0.1c0,0,0,0.1,0,0.2l2.4,13.5l0,0.2c0,0.3-0.1,0.5-0.3,0.5H66
			C65.8,69.1,65.7,68.9,65.7,68.6z M62.5,42.8v7.8c0,0.2,0,0.2,0.1,0.2h1.2c0.5,0,1-0.4,1.3-1.1c0.3-0.7,0.5-1.7,0.5-3
			c0-1.3-0.2-2.3-0.5-3c-0.3-0.7-0.8-1.1-1.3-1.1h-1.2C62.5,42.6,62.5,42.7,62.5,42.8z"/>
		<path class="st0" d="M80.7,42.4c-0.1,0.1-0.1,0.2-0.2,0.2H75c-0.1,0-0.1,0.1-0.1,0.2V50c0,0.2,0,0.2,0.1,0.2h3.2
			c0.1,0,0.2,0.1,0.2,0.2c0.1,0.1,0.1,0.2,0.1,0.4v4.4c0,0.2,0,0.3-0.1,0.4c-0.1,0.1-0.1,0.2-0.2,0.2H75c-0.1,0-0.1,0.1-0.1,0.2v7.3
			c0,0.2,0,0.2,0.1,0.2h5.5c0.1,0,0.2,0.1,0.2,0.2c0.1,0.1,0.1,0.2,0.1,0.4v4.4c0,0.2,0,0.3-0.1,0.4c-0.1,0.1-0.1,0.2-0.2,0.2h-9
			c-0.1,0-0.2-0.1-0.2-0.2c-0.1-0.1-0.1-0.2-0.1-0.4V37.6c0-0.2,0-0.3,0.1-0.4c0.1-0.1,0.1-0.2,0.2-0.2h9c0.1,0,0.2,0.1,0.2,0.2
			c0.1,0.1,0.1,0.2,0.1,0.4V42C80.8,42.2,80.8,42.3,80.7,42.4z"/>
		<path class="st0" d="M84,66.8c-1-1.7-1.4-4-1.4-6.9V37.6c0-0.2,0-0.3,0.1-0.4c0.1-0.1,0.1-0.2,0.2-0.2H86c0.1,0,0.2,0.1,0.2,0.2
			c0.1,0.1,0.1,0.2,0.1,0.4v23c0,1,0.1,1.8,0.4,2.4c0.3,0.6,0.6,0.9,1.1,0.9c0.5,0,0.8-0.3,1.1-0.9c0.3-0.6,0.4-1.4,0.4-2.4v-23
			c0-0.2,0-0.3,0.1-0.4c0.1-0.1,0.1-0.2,0.2-0.2h3.1c0.1,0,0.2,0.1,0.2,0.2c0.1,0.1,0.1,0.2,0.1,0.4V60c0,2.9-0.5,5.2-1.4,6.9
			c-1,1.7-2.2,2.6-3.8,2.6C86.2,69.4,85,68.6,84,66.8z"/>
		<path class="st0" d="M94.7,68.9c-0.1-0.1-0.1-0.2-0.1-0.4v-4.6c0-0.2,0-0.5,0.1-0.7l5.6-20.4c0-0.1,0-0.2,0-0.2
			c0,0-0.1-0.1-0.1-0.1h-5.3c-0.1,0-0.2-0.1-0.2-0.2c-0.1-0.1-0.1-0.2-0.1-0.4v-4.4c0-0.2,0-0.3,0.1-0.4c0.1-0.1,0.1-0.2,0.2-0.2h9
			c0.1,0,0.2,0.1,0.2,0.2c0.1,0.1,0.1,0.2,0.1,0.4v4.6c0,0.2,0,0.4-0.1,0.7l-5.6,20.4c0,0.1,0,0.2,0,0.2c0,0,0.1,0.1,0.1,0.1h5.3
			c0.1,0,0.2,0.1,0.2,0.2c0.1,0.1,0.1,0.2,0.1,0.4v4.4c0,0.2,0,0.3-0.1,0.4c-0.1,0.1-0.1,0.2-0.2,0.2h-9
			C94.8,69.1,94.8,69,94.7,68.9z"/>
		<path class="st0" d="M115.1,66.8c-1,1.5-2.2,2.3-3.8,2.3h-5c-0.1,0-0.2-0.1-0.2-0.2c-0.1-0.1-0.1-0.2-0.1-0.4V37.6
			c0-0.2,0-0.3,0.1-0.4c0.1-0.1,0.1-0.2,0.2-0.2h4.4c1.8,0,3.1,0.7,4.1,2.2c1,1.5,1.5,3.6,1.5,6.5c0,3-0.6,5.2-1.8,6.6
			c-0.1,0.1-0.1,0.2,0,0.3c1.4,1.7,2.1,4.2,2.1,7.6C116.6,63.1,116.1,65.2,115.1,66.8z M109.8,42.8V50c0,0.2,0,0.2,0.1,0.2h0.9
			c0.6,0,1.1-0.3,1.4-1c0.3-0.7,0.5-1.6,0.5-2.8c0-1.2-0.2-2.2-0.5-2.9c-0.3-0.7-0.8-1-1.4-1h-0.9C109.8,42.6,109.8,42.7,109.8,42.8
			z M112.4,62.4c0.3-0.7,0.5-1.8,0.5-3.1c0-1.3-0.2-2.4-0.5-3.2c-0.3-0.8-0.8-1.2-1.3-1.2h-1.2c-0.1,0-0.1,0.1-0.1,0.2v8.1
			c0,0.2,0,0.2,0.1,0.2h1.2C111.6,63.5,112.1,63.1,112.4,62.4z"/>
		<path class="st0" d="M127.9,42.4c-0.1,0.1-0.1,0.2-0.2,0.2h-5.5c-0.1,0-0.1,0.1-0.1,0.2V50c0,0.2,0,0.2,0.1,0.2h3.2
			c0.1,0,0.2,0.1,0.2,0.2c0.1,0.1,0.1,0.2,0.1,0.4v4.4c0,0.2,0,0.3-0.1,0.4c-0.1,0.1-0.1,0.2-0.2,0.2h-3.2c-0.1,0-0.1,0.1-0.1,0.2
			v7.3c0,0.2,0,0.2,0.1,0.2h5.5c0.1,0,0.2,0.1,0.2,0.2c0.1,0.1,0.1,0.2,0.1,0.4v4.4c0,0.2,0,0.3-0.1,0.4c-0.1,0.1-0.1,0.2-0.2,0.2
			h-9c-0.1,0-0.2-0.1-0.2-0.2c-0.1-0.1-0.1-0.2-0.1-0.4V37.6c0-0.2,0-0.3,0.1-0.4c0.1-0.1,0.1-0.2,0.2-0.2h9c0.1,0,0.2,0.1,0.2,0.2
			c0.1,0.1,0.1,0.2,0.1,0.4V42C128,42.2,127.9,42.3,127.9,42.4z"/>
		<path class="st0" d="M136.7,68.6l-2-12.6c0-0.1-0.1-0.2-0.1-0.2h-0.9c-0.1,0-0.1,0.1-0.1,0.2v12.5c0,0.2,0,0.3-0.1,0.4
			c-0.1,0.1-0.1,0.2-0.2,0.2h-3.1c-0.1,0-0.2-0.1-0.2-0.2c-0.1-0.1-0.1-0.2-0.1-0.4V37.6c0-0.2,0-0.3,0.1-0.4
			c0.1-0.1,0.1-0.2,0.2-0.2h5.3c1,0,1.8,0.4,2.6,1.2c0.8,0.8,1.3,1.9,1.7,3.4c0.4,1.5,0.6,3.1,0.6,5c0,1.8-0.2,3.4-0.6,4.8
			c-0.4,1.4-0.9,2.4-1.6,3.2c0,0-0.1,0.1-0.1,0.1c0,0,0,0.1,0,0.2l2.4,13.5l0,0.2c0,0.3-0.1,0.5-0.3,0.5h-3.2
			C136.9,69.1,136.8,68.9,136.7,68.6z M133.5,42.8v7.8c0,0.2,0,0.2,0.1,0.2h1.2c0.5,0,1-0.4,1.3-1.1c0.3-0.7,0.5-1.7,0.5-3
			c0-1.3-0.2-2.3-0.5-3c-0.3-0.7-0.8-1.1-1.3-1.1h-1.2C133.6,42.6,133.5,42.7,133.5,42.8z"/>
		<path class="st0" d="M143.4,67.1c-1-1.6-1.4-3.7-1.4-6.3V45.3c0-2.6,0.5-4.7,1.4-6.3c1-1.6,2.2-2.4,3.8-2.4c1.6,0,2.8,0.8,3.8,2.4
			c1,1.6,1.4,3.7,1.4,6.3v1.7c0,0.2,0,0.3-0.1,0.4c-0.1,0.1-0.1,0.2-0.2,0.2H149c-0.1,0-0.2-0.1-0.2-0.2c-0.1-0.1-0.1-0.2-0.1-0.4
			v-1.8c0-0.9-0.1-1.7-0.4-2.2c-0.3-0.6-0.7-0.8-1.1-0.8c-0.5,0-0.8,0.3-1.1,0.8c-0.3,0.6-0.4,1.3-0.4,2.2v15.5
			c0,0.9,0.1,1.7,0.4,2.2c0.3,0.6,0.6,0.8,1.1,0.8c0.5,0,0.8-0.3,1.1-0.8c0.3-0.6,0.4-1.3,0.4-2.2v-3.7c0-0.2,0-0.2-0.1-0.2h-1.2
			c-0.1,0-0.2-0.1-0.2-0.2c-0.1-0.1-0.1-0.2-0.1-0.4v-4.1c0-0.2,0-0.3,0.1-0.4c0.1-0.1,0.1-0.2,0.2-0.2h4.7c0.1,0,0.2,0.1,0.2,0.2
			c0.1,0.1,0.1,0.2,0.1,0.4v8.5c0,2.6-0.5,4.7-1.4,6.3c-1,1.6-2.2,2.4-3.8,2.4C145.6,69.4,144.3,68.6,143.4,67.1z"/>
	</g>
</g>
</svg>
